<svg xmlns="http://www.w3.org/2000/svg" viewBox="0 0 82 104"><path fill="#FFF" d="M14.35 30.062l6.617-4.495L34.843 46l-6.618 4.494zm23.318 34.422l6.617-4.494 13.877 20.432-6.618 4.494z"/><path fill="#DCDCDC" d="M44.3 34.5L23.5 48.6.4 14.7 21.3.5l23 34zm37.3 54.8l-20.9 14.2-23-34 20.9-14.2 23 34z"/><path fill="#FFF" d="M23.6 48l20-13.6L21.2 1.2l-20 13.6L23.6 48zm37.2 54.8l20-13.6L58.4 56l-20 13.6 22.4 33.2zM40.95 44.456L57.91 32.94l7.077 10.422L48.03 54.88zM23.19 60.244l16.958-11.517 3.54 5.212-16.96 11.516z"/><path fill="#001846" d="M24.255 53.222l16.958-11.517 9.438 13.897L33.694 67.12zM48.8 17c-3.2 2.2.3 13 7.9 24.2S73 59.6 76.3 57.4L48.8 17z"/><ellipse transform="rotate(-34.183 62.55 37.173)" fill="#DCDCDC" cx="62.5" cy="37.2" rx="4.5" ry="24.4"/><path fill="#FFF" d="M66.7 34.4c6.8 10 11.9 21.1 9.5 22.9-1 .7-8-7.9-15.5-18.8S47.9 17.8 48.9 17.1c2.2-1.6 11 7.3 17.8 17.3z"/><path d="M3.002 15.314L7.8 12.056l4.438 6.534-4.798 3.26zm6.475-4.467l4.797-3.258 4.44 6.534-4.8 3.258zm6.613-4.44l4.798-3.258 4.438 6.533-4.798 3.26zM8.513 23.4l4.798-3.258 4.44 6.535-4.798 3.258zm6.475-4.467l4.798-3.258 4.438 6.535-4.798 3.258zm6.612-4.44l4.8-3.258 4.437 6.535-4.798 3.258zm-7.63 16.911l4.796-3.26 4.44 6.536-4.8 3.258zm6.53-4.384l4.797-3.26 4.438 6.536-4.798 3.258zm6.556-4.523l4.798-3.26 4.438 6.536-4.798 3.258zM19.48 39.49l4.798-3.26 4.438 6.536-4.798 3.26zm6.53-4.384l4.798-3.26 4.438 6.536-4.797 3.258zm6.475-4.466l4.798-3.26 4.438 6.535-4.797 3.26zm7.703 39.5l4.798-3.258 4.438 6.534-4.797 3.26zm6.614-4.44l4.797-3.26 4.438 6.536-4.798 3.26zm6.474-4.467l4.798-3.258 4.438 6.534-4.798 3.258zM45.7 78.226l4.797-3.258 4.44 6.535-4.8 3.258zm6.557-4.523l4.798-3.258 4.438 6.535-4.798 3.258zm6.53-4.383l4.798-3.26 4.438 6.536-4.797 3.258zM51.21 86.312l4.8-3.258 4.437 6.535-4.798 3.257zm6.558-4.522l4.798-3.26 4.438 6.536-4.798 3.258zm6.532-4.385l4.796-3.258 4.44 6.535-4.8 3.258zm-7.634 16.911l4.798-3.26 4.438 6.536-4.798 3.26zm6.531-4.384l4.797-3.26 4.44 6.536-4.8 3.258zm6.613-4.442l4.798-3.257 4.438 6.535-4.798 3.258z" fill="#001846"/><path fill="#CBCBCB" d="M60.436 38.02L72.1 30.1l.56.826L61 38.848z"/><circle fill="#CBCBCB" cx="73.7" cy="29.6" r="2.7"/></svg>