<svg xmlns="http://www.w3.org/2000/svg" viewBox="0 0 778.4 240.8"><path fill="#FFF" d="M547.2 178.5c5.8-8 13-18 12.6-30.6-.5-18.6-15.4-32.6-34.6-32.6h-.2c-8.5 0-17 3.7-23.2 10.1-6.4 6.5-10 15.4-9.9 24.2v3l11.1-.2v-3c-.1-5.9 2.4-11.9 6.7-16.3 4.2-4.3 9.8-6.8 15.4-6.8h.1c8.8 0 16 4 20.1 10.4L486.4 216h69.9v-11.1h-28.7c7.3-9.7 18-24.2 19.6-26.4zm-135.413-12.778l10.04-10.04 10.042 10.04-10.042 10.04zM167.96 51.75L178 41.71l10.04 10.04L178 61.793zm-24.493 113.918l10.04-10.04 10.042 10.04-10.042 10.04zM531.79 83.193l10.042-10.04 10.04 10.04-10.04 10.04zM268.7 54.7h-2l-7.4 6.1 34 41.4h14.3m27.6 69.6h11.1v44.3h-11.1z"/><path fill="#FFF" d="M340.7 184.9l-46.4-69.7h13.4l33 49.6 33.1-49.6h13.4m219.3 95.3c-24.7 0-44.8-20.1-44.8-44.8s20.1-44.8 44.8-44.8 44.8 20.1 44.8 44.8-20.1 44.8-44.8 44.8zm0-78.5c-18.6 0-33.7 15.1-33.7 33.7s15.1 33.7 33.7 33.7 33.7-15.1 33.7-33.7-15.1-33.7-33.7-33.7zm-453-16.8c-27.8 0-50.5 22.6-50.5 50.5s22.6 50.5 50.5 50.5 50.5-22.6 50.5-50.5-22.7-50.5-50.5-50.5zm24 50.5c0 13.2-10.8 24-24 24s-24-10.8-24-24 10.8-24 24-24 24 10.7 24 24z"/><path fill="#004098" d="M153.5 213.1c-26.2 0-47.5-21.3-47.5-47.5s21.3-47.5 47.5-47.5 47.5 21.3 47.5 47.5c-.1 26.2-21.4 47.5-47.5 47.5zm0-89.8c-23.4 0-42.4 19-42.4 42.4s19 42.4 42.4 42.4 42.4-19 42.4-42.4-19.1-42.4-42.4-42.4z"/><path fill="#004098" d="M153.5 197.8c-17.7 0-32.1-14.4-32.1-32.1s14.4-32.1 32.1-32.1 32.1 14.4 32.1 32.1-14.4 32.1-32.1 32.1zm0-59.1c-14.9 0-27 12.1-27 27s12.1 27 27 27 27-12.1 27-27-12.1-27-27-27z"/><path fill="#004098" d="M153.47 159.915l5.8 5.798-5.8 5.798-5.798-5.797z"/><path fill="#FFF" d="M421.8 115.2c-27.8 0-50.5 22.6-50.5 50.5s22.6 50.5 50.5 50.5 50.5-22.6 50.5-50.5-22.7-50.5-50.5-50.5zm24 50.5c0 13.2-10.8 24-24 24s-24-10.8-24-24 10.8-24 24-24 24 10.7 24 24z"/><path fill="#004098" d="M421.8 213.1c-26.2 0-47.5-21.3-47.5-47.5s21.3-47.5 47.5-47.5 47.5 21.3 47.5 47.5-21.3 47.5-47.5 47.5zm0-89.8c-23.4 0-42.4 19-42.4 42.4s19 42.4 42.4 42.4 42.4-19 42.4-42.4-19-42.4-42.4-42.4z"/><path fill="#004098" d="M421.8 197.8c-17.7 0-32.1-14.4-32.1-32.1s14.4-32.1 32.1-32.1c17.7 0 32.1 14.4 32.1 32.1s-14.4 32.1-32.1 32.1zm0-59.1c-14.9 0-27 12.1-27 27s12.1 27 27 27 27-12.1 27-27-12.1-27-27-27z"/><path fill="#004098" d="M421.782 159.882l5.798 5.798-5.798 5.798-5.798-5.798z"/><path fill="#FFF" d="M113.6 115.2H25v11.1h31v89.8h26.5v-89.8h31.1"/><path fill="#004098" d="M79.5 213.1H59v-92.3h5.2V208h10.2v-87.2h5.1"/><path fill="#004098" d="M28 118.2h82.6v5.1H28z"/><path fill="#FFF" d="M668.2 115.2l-21.1 14v13.2l19-12.5v86.2h26.4V115.2"/><path fill="#004098" d="M669.1 118.2l-19 12.6v6l18.9-12.6V213h20.5v-94.9h-20.4zm15.3 89.8h-10.2v-84.7h10.2V208z"/><g fill="#004098"><path d="M338.2 174.8h5.1v38.3h-5.1z"/><path d="M381.6 118.2h-6.2l-34.7 52-34.6-52h-6.2l40.8 61.2"/></g><path fill="#FFF" d="M298.7 115.2h-15.5l-41.1 42.5-21.5-22.2v-20.3h-11.1v101h11.1v-20.3l21.5-22.2 41.1 42.4h15.5l-48.8-50.4"/><path fill="#004098" d="M212.5 118.2h5.1v94.9h-5.1z"/><path fill="#004098" d="M216.9 135.9l-3.7 3.6 71.3 73.6h7.1"/><path fill="#004098" d="M284.5 118.2l-71.3 73.6 3.7 3.6 74.7-77.2"/><g fill="#004098"><path d="M518.5 212.2l-4.1-3.1c.2-.3 23.9-32.1 26.2-35.4 5.1-7 11.4-15.8 11.1-25.6-.4-14.4-11.5-24.7-26.5-24.7h-.2c-6.3 0-12.7 2.8-17.5 7.7-4.9 5-7.7 11.7-7.6 18.4l-5.1.1c-.1-8.1 3.2-16.1 9-22.1 5.7-5.8 13.4-9.2 21.1-9.2h.2c17.5 0 31.1 12.7 31.6 29.7.3 11.6-6.5 21.1-12 28.8-2.3 3.2-25.2 34.1-26.2 35.4z"/><path d="M553.3 213.1h-61l57.5-77.3 4.1 3-51.4 69.2h50.8"/></g><path fill="#FFF" d="M698.3 115.2v11.1h46.5l-60.3 114.5h27.9l66-125.6"/><path fill="#004098" d="M773.5 118.2h-72.2v5.1h48.5l-60.2 114.5h21.1l62.8-119.6zm-66 114.5h-9.6l57.6-109.4h9.6l-57.6 109.4zm-101-25.2c-23.1 0-41.8-18.8-41.8-41.8 0-23.1 18.8-41.8 41.8-41.8s41.8 18.8 41.8 41.8c0 23-18.7 41.8-41.8 41.8zm0-78.5c-20.2 0-36.7 16.5-36.7 36.7 0 20.2 16.5 36.7 36.7 36.7 20.2 0 36.7-16.5 36.7-36.7 0-20.3-16.5-36.7-36.7-36.7z"/><path fill="#FFF" d="M449.4 102.2c-27.8 0-50.5-22.6-50.5-50.5 0-27.8 22.6-50.5 50.5-50.5 16 0 31.2 7.7 40.7 20.6l1.8 2.4-9 6.6-1.8-2.4c-7.4-10.1-19.3-16.1-31.7-16.1-21.7 0-39.4 17.7-39.4 39.4s17.7 39.4 39.4 39.4c14.2 0 27.4-7.7 34.4-20.2l1.5-2.6 9.7 5.4-1.5 2.6c-8.9 16-25.8 25.9-44.1 25.9zm298-37h-24.3V54.1h24.3c2.7 0 5.2-.6 7.3-1.7 2.2-1.2 4.1-2.7 5.6-4.6 1.6-2 2.8-4.3 3.7-6.8.9-2.5 1.3-5.1 1.3-7.7 0-2.7-.5-5.3-1.5-7.8s-2.4-4.8-4.1-6.7c-1.7-1.9-3.8-3.5-6.1-4.6-2.2-1.1-4.6-1.7-7.1-1.7h-23.4V1.3h23.4c4.2 0 8.3 1 12.1 2.8 3.6 1.8 6.7 4.2 9.4 7.1 2.6 2.9 4.7 6.3 6.2 10 1.5 3.8 2.3 7.8 2.3 11.9 0 3.8-.6 7.7-1.9 11.3-1.3 3.7-3.1 7.1-5.5 10.1-2.5 3.2-5.6 5.7-9.2 7.6-3.8 2.1-8 3.1-12.5 3.1zm-399.6 37h-31.4V91.1h31.4c6.1 0 11.4-1 15.9-3 4.5-1.9 8.3-4.7 11.3-8.1 3-3.4 5.3-7.6 6.9-12.4 1.6-4.9 2.4-10.3 2.4-16.1 0-5.8-.8-11.3-2.4-16.1-1.6-4.7-3.9-8.8-7-12.2-3-3.4-6.9-6.1-11.3-8-4.5-1.9-9.8-2.9-15.7-2.9h-31.4v-11h31.4c7.4 0 14.2 1.3 20.1 3.8 6 2.6 11.1 6.2 15.2 10.8 4.1 4.5 7.2 10 9.3 16.1 2 6 3 12.6 3 19.6 0 6.9-1 13.5-2.9 19.5-2 6.2-5.1 11.7-9.1 16.3-4.1 4.7-9.2 8.3-15.2 10.9-6.1 2.6-12.9 3.9-20.5 3.9zm-254 0h-7.1L41.8 1.3H54l36.2 81.5 36.2-81.5h12.2"/><path fill="#FFF" d="M51.9 102.2h-7.1L0 1.3h12.2l36.2 81.5L84.6 1.3h12.1m178.7 63.9h-24.3V54.1h24.3c2.7 0 5.2-.6 7.3-1.7 2.2-1.2 4.1-2.7 5.6-4.6 1.6-2 2.8-4.3 3.7-6.8.9-2.5 1.3-5.1 1.3-7.7 0-2.7-.5-5.3-1.5-7.8s-2.4-4.8-4.1-6.7c-1.7-1.9-3.8-3.5-6.1-4.6-2.2-1.1-4.6-1.7-7.1-1.7h-23.4V1.3h23.4c4.2 0 8.3 1 12.1 2.8 3.6 1.8 6.7 4.2 9.4 7.1 2.6 2.9 4.7 6.3 6.2 10 1.5 3.8 2.3 7.8 2.3 11.9 0 3.8-.6 7.7-1.9 11.3-1.3 3.7-3.1 7.1-5.5 10.1-2.5 3.2-5.6 5.7-9.2 7.6-3.7 2.1-7.9 3.1-12.5 3.1zM177.9 1.3c-27.8 0-50.5 22.6-50.5 50.5 0 27.8 22.6 50.5 50.5 50.5s50.5-22.6 50.5-50.5-22.6-50.5-50.5-50.5zm24 50.5c0 13.2-10.8 24-24 24s-24-10.8-24-24 10.8-24 24-24 24 10.7 24 24z"/><path fill="#004098" d="M177.9 99.2c-26.2 0-47.5-21.3-47.5-47.5s21.3-47.5 47.5-47.5 47.5 21.3 47.5 47.5-21.3 47.5-47.5 47.5zm0-89.8c-23.4 0-42.4 19-42.4 42.4s19 42.4 42.4 42.4 42.4-19 42.4-42.4-19-42.4-42.4-42.4z"/><path fill="#004098" d="M177.9 83.9c-17.7 0-32.1-14.4-32.1-32.1s14.4-32.1 32.1-32.1S210 34.1 210 51.8s-14.4 32.1-32.1 32.1zm0-59.1c-14.9 0-27 12.1-27 27s12.1 27 27 27 27-12.1 27-27-12.1-27-27-27z"/><path fill="#004098" d="M177.964 46.034l5.798 5.8-5.798 5.797-5.8-5.797zM449.4 99.2c-26.2 0-47.5-21.3-47.5-47.5s21.3-47.5 47.5-47.5c15.1 0 29.4 7.3 38.3 19.4l-4.1 3c-8-10.8-20.7-17.3-34.2-17.3-23.4 0-42.4 19-42.4 42.4s19 42.4 42.4 42.4c15.3 0 29.5-8.3 37-21.7l4.5 2.5c-8.4 15-24.3 24.3-41.5 24.3z"/><path fill="#FFF" d="M705.2 1.3h26.5v100.9h-26.5z"/><path fill="#004098" d="M747.4 62.2h-21.3v-5.1h21.3c3.2 0 6.1-.7 8.7-2 2.6-1.4 4.8-3.2 6.6-5.4 1.8-2.3 3.2-4.9 4.2-7.7s1.5-5.8 1.5-8.7c0-3.1-.6-6.1-1.7-8.9-1.1-2.8-2.7-5.4-4.7-7.6-2-2.2-4.3-4-7-5.3-2.6-1.3-5.5-2-8.4-2h-20.4V4.3h20.4c3.8 0 7.4.9 10.7 2.5 3.2 1.6 6.1 3.8 8.5 6.4 2.4 2.6 4.3 5.7 5.7 9.1 1.4 3.4 2.1 7.1 2.1 10.8 0 3.5-.6 7-1.7 10.4-1.2 3.4-2.8 6.5-5 9.2-2.2 2.8-5 5.1-8.2 6.8-3.5 1.8-7.3 2.7-11.3 2.7z"/><path fill="#004098" d="M728.6 99.2h-20.5V4.3h20.5v94.9zm-15.3-5.1h10.2V9.4h-10.2v84.7z"/><path fill="#FFF" d="M313.8 1.3h26.5v100.9h-26.5z"/><path fill="#004098" d="M347.8 99.2h-28.4v-5.1h28.4c6.5 0 12.2-1.1 17.1-3.2 4.9-2.1 9-5.1 12.3-8.9 3.3-3.8 5.8-8.3 7.5-13.4 1.7-5.2 2.5-10.9 2.5-17 0-6.2-.9-11.9-2.6-17-1.7-5.1-4.3-9.6-7.6-13.3-3.3-3.7-7.5-6.6-12.4-8.7-4.9-2.1-10.6-3.2-16.9-3.2h-28.4V4.3h28.4c7 0 13.4 1.2 18.9 3.6 5.6 2.4 10.3 5.8 14.2 10 3.8 4.2 6.7 9.3 8.7 15.1 1.9 5.7 2.9 11.9 2.9 18.7 0 6.6-.9 12.9-2.8 18.6-1.9 5.8-4.8 10.9-8.5 15.2-3.8 4.3-8.5 7.7-14.1 10.2-5.6 2.3-12 3.5-19.2 3.5z"/><path fill="#004098" d="M337.3 99.2h-20.5V4.3h20.5v94.9zm-15.4-5.1h10.2V9.4h-10.2v84.7z"/><g fill="#004098"><path d="M134 4.3h-5.6L90.2 90.2 52.1 4.3h-5.6l42.1 94.9h3.2"/><path d="M92.1 4.3h-5.6L48.4 90.2 10.2 4.3H4.6l42.2 94.9H50"/></g><path fill="#FFF" d="M233.2 1.3h26.5v100.9h-26.5z"/><path fill="#004098" d="M275.4 62.2h-21.3v-5.1h21.3c3.2 0 6.1-.7 8.7-2 2.6-1.4 4.8-3.2 6.6-5.4 1.8-2.3 3.2-4.9 4.2-7.7s1.5-5.8 1.5-8.7c0-3.1-.6-6.1-1.7-8.9-1.1-2.8-2.7-5.4-4.7-7.6-2-2.2-4.3-4-7-5.3-2.6-1.3-5.5-2-8.4-2h-20.4V4.3h20.4c3.8 0 7.4.9 10.7 2.5 3.2 1.6 6.1 3.8 8.5 6.4 2.4 2.6 4.3 5.7 5.7 9.1 1.4 3.4 2.1 7.1 2.1 10.8 0 3.5-.6 7-1.7 10.4-1.2 3.4-2.8 6.5-5 9.2-2.2 2.8-5 5.1-8.2 6.8-3.5 1.8-7.2 2.7-11.3 2.7z"/><path fill="#004098" d="M256.7 99.2h-20.5V4.3h20.5v94.9zm-15.4-5.1h10.2V9.4h-10.2v84.7zm26.2-36.2l-4 3.3 31.2 38h6.6"/><path fill="#FFF" d="M545.3 1.3h-7l-49 100.9h12.3l7.7-15.8 32.5-16.6 32.5 16.6 7.7 15.8h12.4"/><path fill="#004098" d="M563.05 49.78l2.32 4.54-59.478 30.4-2.32-4.54z"/><path fill="#004098" d="M520.62 49.79l59.48 30.4-2.322 4.542-59.48-30.4zm21.195-11.804l5.798 5.8-5.798 5.797-5.8-5.798zm-.048 39.38l5.798 5.798-5.798 5.8-5.8-5.8z"/><path fill="#004098" d="M543.4 4.3h-3.2l-46.1 94.9h5.7l42-86.5 42.1 86.5h5.7"/><path fill="#FFF" d="M690.4 1.3l-43 58.7-42.9-58.7h-8.3v100.9h11.1V23.9l33.3 45.6-23.8 32.7h61.3l-23.8-32.7 33.3-45.6v78.3h11.1V1.3"/><path fill="#004098" d="M604.3 99.2V14.7l40 54.8-21.6 29.8h49.6l-21.6-29.8 40-54.8v84.5h5.1V4.3h-3.9l-44.4 60.8L603 4.3h-3.9v94.9h5.2zm57.9-5.2h-29.4l14.7-20.1L662.2 94z"/></svg>