<svg id="5da50ed0-1839-4ed3-adcc-0e6101993664" data-name="レイヤー 1" xmlns="http://www.w3.org/2000/svg" width="499.243" height="79.624" viewBox="0 0 499.24268 79.62449"><defs><style>.f864e418-ccfa-454e-b017-723ced3f1c33{fill:none;stroke:#fff;stroke-linecap:round;stroke-linejoin:round;stroke-width:4px}.\33 fe70dd7-7dd1-4ee8-8163-4971eb8506e6{fill:#025392}</style></defs><title>wct2017-date-en</title><path class="f864e418-ccfa-454e-b017-723ced3f1c33" d="M290.427 34.509a15.273 15.273 0 0 0 1.804-3.802 15.462 15.462 0 0 0 .718-4.38l.008-.345h-3.425c-.022.342-.07.77-.102 1.08a14.599 14.599 0 0 1-.566 2.734 12.913 12.913 0 0 1-.901 2.2l-7.494-7.622a15.492 15.492 0 0 1-1.207-1.343 7.944 7.944 0 0 1-.798-1.219 5.586 5.586 0 0 1-.458-1.153 4.65 4.65 0 0 1-.15-1.183 3.897 3.897 0 0 1 .269-1.456 3.423 3.423 0 0 1 .762-1.159 3.479 3.479 0 0 1 1.183-.769 4.243 4.243 0 0 1 1.582-.278 3.485 3.485 0 0 1 1.391.256 3.526 3.526 0 0 1 1.021.657 3.627 3.627 0 0 1 .695.884 4.225 4.225 0 0 1 .396.951 6.016 6.016 0 0 1 .154 1.033c.33-.053 3.584-.679 3.584-.679l-.022-.296a6.089 6.089 0 0 0-.629-2.319 6.437 6.437 0 0 0-1.502-1.951 7.454 7.454 0 0 0-2.234-1.341 7.772 7.772 0 0 0-2.854-.509 8.76 8.76 0 0 0-3.166.546 7.252 7.252 0 0 0-2.415 1.491 6.472 6.472 0 0 0-1.53 2.23 7.102 7.102 0 0 0-.527 2.728 8.086 8.086 0 0 0 .572 2.987 11.459 11.459 0 0 0 1.494 2.59 12.833 12.833 0 0 0-2.044 1.222 9.952 9.952 0 0 0-1.933 1.866 8.604 8.604 0 0 0-1.283 2.28 7.476 7.476 0 0 0-.467 2.63 7.359 7.359 0 0 0 .737 3.32 7.845 7.845 0 0 0 1.933 2.485 8.491 8.491 0 0 0 2.715 1.55 9.306 9.306 0 0 0 3.088.531 13.155 13.155 0 0 0 5.243-1.032 14.004 14.004 0 0 0 3.966-2.569s3.057 3.102 3.253 3.296h5.205zm-11.032 3.02a5.52 5.52 0 0 1-1.824-.313 4.83 4.83 0 0 1-1.575-.912 4.479 4.479 0 0 1-1.533-3.498 5.476 5.476 0 0 1 .957-3.102 7.783 7.783 0 0 1 2.683-2.357l7.6 7.671a10.02 10.02 0 0 1-2.637 1.765 8.724 8.724 0 0 1-3.671.746zM157.78 6.259l-7.395 6.825-3.187-3.812L158.405.001h4.835v40.273h-5.46zm26.506 9.328h.229a10.097 10.097 0 0 1 4.437-.91 13.84 13.84 0 0 1 4.38.74 11.692 11.692 0 0 1 4.01 2.303 11.955 11.955 0 0 1 2.929 3.983 13.31 13.31 0 0 1 1.138 5.716 14.53 14.53 0 0 1-1.11 5.888 12.088 12.088 0 0 1-7.366 6.797 16.517 16.517 0 0 1-5.347.852 15.509 15.509 0 0 1-5.347-.909 13.106 13.106 0 0 1-4.381-2.617 12.71 12.71 0 0 1-2.985-4.096 12.535 12.535 0 0 1-1.109-5.347 18.69 18.69 0 0 1 .284-3.412 16.208 16.208 0 0 1 .825-2.929 22.147 22.147 0 0 1 1.28-2.732q.738-1.335 1.65-2.815L187.984 0h6.427zm-5.062 12.23a9.195 9.195 0 0 0 .598 3.357 7.553 7.553 0 0 0 1.706 2.643 7.894 7.894 0 0 0 2.644 1.736 9.62 9.62 0 0 0 6.828 0 7.897 7.897 0 0 0 2.644-1.736 7.575 7.575 0 0 0 1.707-2.643 9.72 9.72 0 0 0 0-6.712 7.596 7.596 0 0 0-1.707-2.648A7.932 7.932 0 0 0 191 20.081a9.622 9.622 0 0 0-6.828 0 7.93 7.93 0 0 0-2.644 1.733 7.574 7.574 0 0 0-1.706 2.648 9.182 9.182 0 0 0-.598 3.355z" transform="translate(-.86 2)"/><path class="f864e418-ccfa-454e-b017-723ced3f1c33" d="M157.78 6.259l-7.395 6.825-3.187-3.812L158.405.001h4.835v40.273h-5.46zm26.506 9.328h.229a10.097 10.097 0 0 1 4.437-.91 13.84 13.84 0 0 1 4.38.74 11.692 11.692 0 0 1 4.01 2.303 11.955 11.955 0 0 1 2.929 3.983 13.31 13.31 0 0 1 1.138 5.716 14.53 14.53 0 0 1-1.11 5.888 12.088 12.088 0 0 1-7.366 6.797 16.517 16.517 0 0 1-5.347.852 15.509 15.509 0 0 1-5.347-.909 13.106 13.106 0 0 1-4.381-2.617 12.71 12.71 0 0 1-2.985-4.096 12.535 12.535 0 0 1-1.109-5.347 18.69 18.69 0 0 1 .284-3.412 16.208 16.208 0 0 1 .825-2.929 22.147 22.147 0 0 1 1.28-2.732q.738-1.335 1.65-2.815L187.984 0h6.427zm-5.062 12.23a9.195 9.195 0 0 0 .598 3.357 7.553 7.553 0 0 0 1.706 2.643 7.894 7.894 0 0 0 2.644 1.736 9.62 9.62 0 0 0 6.828 0 7.897 7.897 0 0 0 2.644-1.736 7.575 7.575 0 0 0 1.707-2.643 9.72 9.72 0 0 0 0-6.712 7.596 7.596 0 0 0-1.707-2.648A7.932 7.932 0 0 0 191 20.081a9.622 9.622 0 0 0-6.828 0 7.93 7.93 0 0 0-2.644 1.733 7.574 7.574 0 0 0-1.706 2.648 9.182 9.182 0 0 0-.598 3.355z" transform="translate(-.86 2)"/><path class="f864e418-ccfa-454e-b017-723ced3f1c33" d="M157.78 6.259l-7.395 6.825-3.187-3.812L158.405.001h4.835v40.273h-5.46zm26.506 9.328h.229a10.097 10.097 0 0 1 4.437-.91 13.84 13.84 0 0 1 4.38.74 11.692 11.692 0 0 1 4.01 2.303 11.955 11.955 0 0 1 2.929 3.983 13.31 13.31 0 0 1 1.138 5.716 14.53 14.53 0 0 1-1.11 5.888 12.088 12.088 0 0 1-7.366 6.797 16.517 16.517 0 0 1-5.347.852 15.509 15.509 0 0 1-5.347-.909 13.106 13.106 0 0 1-4.381-2.617 12.71 12.71 0 0 1-2.985-4.096 12.535 12.535 0 0 1-1.109-5.347 18.69 18.69 0 0 1 .284-3.412 16.208 16.208 0 0 1 .825-2.929 22.147 22.147 0 0 1 1.28-2.732q.738-1.335 1.65-2.815L187.984 0h6.427zm-5.062 12.23a9.195 9.195 0 0 0 .598 3.357 7.553 7.553 0 0 0 1.706 2.643 7.894 7.894 0 0 0 2.644 1.736 9.62 9.62 0 0 0 6.828 0 7.897 7.897 0 0 0 2.644-1.736 7.575 7.575 0 0 0 1.707-2.643 9.72 9.72 0 0 0 0-6.712 7.596 7.596 0 0 0-1.707-2.648A7.932 7.932 0 0 0 191 20.081a9.622 9.622 0 0 0-6.828 0 7.93 7.93 0 0 0-2.644 1.733 7.574 7.574 0 0 0-1.706 2.648 9.182 9.182 0 0 0-.598 3.355zm-56.876 13.139l-3.98-1.228L136.57 3.375l3.925 1.227zM104.921 25.37h-.227a10.063 10.063 0 0 1-4.436.91 13.757 13.757 0 0 1-4.38-.74 11.594 11.594 0 0 1-4.01-2.302 11.958 11.958 0 0 1-2.931-3.983 13.313 13.313 0 0 1-1.137-5.717 14.406 14.406 0 0 1 1.11-5.83 12.352 12.352 0 0 1 2.985-4.238 12.713 12.713 0 0 1 4.38-2.588A15.992 15.992 0 0 1 101.623 0a15.552 15.552 0 0 1 5.347.91 13.105 13.105 0 0 1 4.38 2.617 12.71 12.71 0 0 1 2.986 4.095 12.554 12.554 0 0 1 1.11 5.348 18.868 18.868 0 0 1-.284 3.412 16.427 16.427 0 0 1-.826 2.93 24.237 24.237 0 0 1-1.28 2.759q-.74 1.365-1.65 2.787l-10.182 16.098h-6.427zm5.064-12.23a9.163 9.163 0 0 0-.598-3.356 7.585 7.585 0 0 0-1.707-2.646 7.92 7.92 0 0 0-2.645-1.733 9.616 9.616 0 0 0-6.826 0 7.947 7.947 0 0 0-2.645 1.733 7.579 7.579 0 0 0-1.706 2.646 9.186 9.186 0 0 0-.597 3.356 9.183 9.183 0 0 0 .597 3.356 7.583 7.583 0 0 0 1.706 2.646 7.94 7.94 0 0 0 2.645 1.735 9.622 9.622 0 0 0 6.826 0 7.911 7.911 0 0 0 2.645-1.735 7.59 7.59 0 0 0 1.707-2.646 9.16 9.16 0 0 0 .598-3.356z" transform="translate(-.86 2)"/><path class="f864e418-ccfa-454e-b017-723ced3f1c33" d="M104.921 25.37h-.227a10.063 10.063 0 0 1-4.436.91 13.757 13.757 0 0 1-4.38-.74 11.594 11.594 0 0 1-4.01-2.302 11.958 11.958 0 0 1-2.931-3.983 13.313 13.313 0 0 1-1.137-5.717 14.406 14.406 0 0 1 1.11-5.83 12.352 12.352 0 0 1 2.985-4.238 12.713 12.713 0 0 1 4.38-2.588A15.992 15.992 0 0 1 101.623 0a15.552 15.552 0 0 1 5.347.91 13.105 13.105 0 0 1 4.38 2.617 12.71 12.71 0 0 1 2.986 4.095 12.554 12.554 0 0 1 1.11 5.348 18.868 18.868 0 0 1-.284 3.412 16.427 16.427 0 0 1-.826 2.93 24.237 24.237 0 0 1-1.28 2.759q-.74 1.365-1.65 2.787l-10.182 16.098h-6.427zm5.064-12.23a9.163 9.163 0 0 0-.598-3.356 7.585 7.585 0 0 0-1.707-2.646 7.92 7.92 0 0 0-2.645-1.733 9.616 9.616 0 0 0-6.826 0 7.947 7.947 0 0 0-2.645 1.733 7.579 7.579 0 0 0-1.706 2.646 9.186 9.186 0 0 0-.597 3.356 9.183 9.183 0 0 0 .597 3.356 7.583 7.583 0 0 0 1.706 2.646 7.94 7.94 0 0 0 2.645 1.735 9.622 9.622 0 0 0 6.826 0 7.911 7.911 0 0 0 2.645-1.735 7.59 7.59 0 0 0 1.707-2.646 9.16 9.16 0 0 0 .598-3.356z" transform="translate(-.86 2)"/><path class="f864e418-ccfa-454e-b017-723ced3f1c33" d="M104.921 25.37h-.227a10.063 10.063 0 0 1-4.436.91 13.757 13.757 0 0 1-4.38-.74 11.594 11.594 0 0 1-4.01-2.302 11.958 11.958 0 0 1-2.931-3.983 13.313 13.313 0 0 1-1.137-5.717 14.406 14.406 0 0 1 1.11-5.83 12.352 12.352 0 0 1 2.985-4.238 12.713 12.713 0 0 1 4.38-2.588A15.992 15.992 0 0 1 101.623 0a15.552 15.552 0 0 1 5.347.91 13.105 13.105 0 0 1 4.38 2.617 12.71 12.71 0 0 1 2.986 4.095 12.554 12.554 0 0 1 1.11 5.348 18.868 18.868 0 0 1-.284 3.412 16.427 16.427 0 0 1-.826 2.93 24.237 24.237 0 0 1-1.28 2.759q-.74 1.365-1.65 2.787l-10.182 16.098h-6.427zm5.064-12.23a9.163 9.163 0 0 0-.598-3.356 7.585 7.585 0 0 0-1.707-2.646 7.92 7.92 0 0 0-2.645-1.733 9.616 9.616 0 0 0-6.826 0 7.947 7.947 0 0 0-2.645 1.733 7.579 7.579 0 0 0-1.706 2.646 9.186 9.186 0 0 0-.597 3.356 9.183 9.183 0 0 0 .597 3.356 7.583 7.583 0 0 0 1.706 2.646 7.94 7.94 0 0 0 2.645 1.735 9.622 9.622 0 0 0 6.826 0 7.911 7.911 0 0 0 2.645-1.735 7.59 7.59 0 0 0 1.707-2.646 9.16 9.16 0 0 0 .598-3.356zM309.13 6.939l-7.394 6.827-3.185-3.811L309.757.682h4.836v40.274h-5.462zm36.726-1.479h-19.511V.682h25.313v4.665l-16.04 35.609h-6.143zM222.832 30.939a8.21 8.21 0 0 0-2.165-1.15 25.935 25.935 0 0 0-2.84-.844q-1.275-.319-2.229-.594a7.283 7.283 0 0 1-1.568-.625 2.508 2.508 0 0 1-.899-.8 2.15 2.15 0 0 1-.284-1.166 2.357 2.357 0 0 1 .923-1.99 4.847 4.847 0 0 1 2.954-.727 8.025 8.025 0 0 1 1.784.2 9.282 9.282 0 0 1 1.602.515 8.34 8.34 0 0 1 1.272.671 4.412 4.412 0 0 1 .817.66l.117.13 1.617-2.916-.088-.066a12.988 12.988 0 0 0-3.134-1.669 11.012 11.012 0 0 0-3.9-.676 10.49 10.49 0 0 0-2.994.412 7.073 7.073 0 0 0-2.406 1.226 5.871 5.871 0 0 0-1.614 2.014 6.124 6.124 0 0 0-.593 2.738 5.106 5.106 0 0 0 .402 2.125 4.391 4.391 0 0 0 1.18 1.538 6.88 6.88 0 0 0 1.933 1.108 24.94 24.94 0 0 0 2.697.86q1.331.347 2.373.666a9.708 9.708 0 0 1 1.746.7 3.252 3.252 0 0 1 1.076.88 1.997 1.997 0 0 1 .367 1.229 2.056 2.056 0 0 1-.987 1.866 5.406 5.406 0 0 1-2.89.648 9.312 9.312 0 0 1-2.261-.272 14.48 14.48 0 0 1-2.027-.66 10.104 10.104 0 0 1-1.633-.845 6.77 6.77 0 0 1-1.067-.826l-.12-.12-1.607 3.027.083.065a13.18 13.18 0 0 0 3.996 2.094 14.8 14.8 0 0 0 4.577.716 12.527 12.527 0 0 0 2.96-.337 7.327 7.327 0 0 0 2.433-1.062 5.212 5.212 0 0 0 1.664-1.887 5.875 5.875 0 0 0 .609-2.755 5.463 5.463 0 0 0-.492-2.418 4.744 4.744 0 0 0-1.384-1.683zm12.474-10.901l-8.277 20.84h3.721l2.146-5.597h7.775l2.175 5.597h3.69l-8.218-20.84zm4.632 12.586h-6.365l3.237-8.369z" transform="translate(-.86 2)"/><path class="f864e418-ccfa-454e-b017-723ced3f1c33" d="M244.534 22.038v3.121h6.873v17.719h3.527V25.159h6.844v-3.121h-17.244z"/><path class="f864e418-ccfa-454e-b017-723ced3f1c33" d="M366.585 30.939a8.223 8.223 0 0 0-2.165-1.15 25.884 25.884 0 0 0-2.84-.844q-1.273-.319-2.228-.594a7.254 7.254 0 0 1-1.569-.625 2.505 2.505 0 0 1-.898-.801 2.144 2.144 0 0 1-.285-1.165 2.389 2.389 0 0 1 .922-1.99 4.849 4.849 0 0 1 2.955-.727 8.012 8.012 0 0 1 1.784.2 9.278 9.278 0 0 1 1.602.515 8.34 8.34 0 0 1 1.273.671 4.39 4.39 0 0 1 .816.66l.117.13 1.617-2.916-.088-.066a12.944 12.944 0 0 0-3.133-1.669 11.012 11.012 0 0 0-3.902-.676 10.497 10.497 0 0 0-2.994.412 7.078 7.078 0 0 0-2.405 1.226 5.897 5.897 0 0 0-1.614 2.014 6.127 6.127 0 0 0-.593 2.738 5.104 5.104 0 0 0 .403 2.125 4.4 4.4 0 0 0 1.178 1.538 6.881 6.881 0 0 0 1.935 1.108 25.02 25.02 0 0 0 2.697.86q1.33.347 2.373.666a9.639 9.639 0 0 1 1.745.7 3.278 3.278 0 0 1 1.077.879 2.008 2.008 0 0 1 .365 1.23 2.055 2.055 0 0 1-.986 1.866 5.399 5.399 0 0 1-2.89.648 9.318 9.318 0 0 1-2.261-.272 14.54 14.54 0 0 1-2.027-.66 10.087 10.087 0 0 1-1.632-.846 6.742 6.742 0 0 1-1.067-.825l-.12-.12-1.608 3.027.084.065a13.178 13.178 0 0 0 3.996 2.093 14.782 14.782 0 0 0 4.577.717 12.503 12.503 0 0 0 2.958-.337 7.32 7.32 0 0 0 2.434-1.062 5.206 5.206 0 0 0 1.664-1.887 5.87 5.87 0 0 0 .609-2.755 5.453 5.453 0 0 0-.491-2.418 4.759 4.759 0 0 0-1.385-1.683zm20.584-.336a13.18 13.18 0 0 1-.273 2.686 6.956 6.956 0 0 1-.912 2.308 4.982 4.982 0 0 1-1.683 1.627 5.108 5.108 0 0 1-2.633.62 5.216 5.216 0 0 1-2.62-.607 4.811 4.811 0 0 1-1.697-1.611 6.946 6.946 0 0 1-.912-2.309 13.26 13.26 0 0 1-.272-2.714V20.038h-3.498v10.565a16.022 16.022 0 0 0 .468 3.888 9.574 9.574 0 0 0 1.527 3.334 7.665 7.665 0 0 0 2.785 2.33 9.352 9.352 0 0 0 4.219.868 9.527 9.527 0 0 0 4.128-.824 7.637 7.637 0 0 0 2.815-2.256 9.392 9.392 0 0 0 1.588-3.321 15.821 15.821 0 0 0 .496-4.019V20.038h-3.526z" transform="translate(-.86 2)"/><path class="f864e418-ccfa-454e-b017-723ced3f1c33" d="M408.232 22.067v14.585L396.68 22.086l-2.774-.048v20.84h3.498v-14.27l11.434 14.223 2.92.047V22.067h-3.526z"/><path class="3fe70dd7-7dd1-4ee8-8163-4971eb8506e6" d="M290.427 34.509a15.273 15.273 0 0 0 1.804-3.802 15.462 15.462 0 0 0 .718-4.38l.008-.345h-3.425c-.022.342-.07.77-.102 1.08a14.599 14.599 0 0 1-.566 2.734 12.913 12.913 0 0 1-.901 2.2l-7.494-7.622a15.492 15.492 0 0 1-1.207-1.343 7.944 7.944 0 0 1-.798-1.219 5.586 5.586 0 0 1-.458-1.153 4.65 4.65 0 0 1-.15-1.183 3.897 3.897 0 0 1 .269-1.456 3.423 3.423 0 0 1 .762-1.159 3.479 3.479 0 0 1 1.183-.769 4.243 4.243 0 0 1 1.582-.278 3.485 3.485 0 0 1 1.391.256 3.526 3.526 0 0 1 1.021.657 3.627 3.627 0 0 1 .695.884 4.225 4.225 0 0 1 .396.951 6.016 6.016 0 0 1 .154 1.033c.33-.053 3.584-.679 3.584-.679l-.022-.296a6.089 6.089 0 0 0-.629-2.319 6.437 6.437 0 0 0-1.502-1.951 7.454 7.454 0 0 0-2.234-1.341 7.772 7.772 0 0 0-2.854-.509 8.76 8.76 0 0 0-3.166.546 7.252 7.252 0 0 0-2.415 1.491 6.472 6.472 0 0 0-1.53 2.23 7.102 7.102 0 0 0-.527 2.728 8.086 8.086 0 0 0 .572 2.987 11.459 11.459 0 0 0 1.494 2.59 12.833 12.833 0 0 0-2.044 1.222 9.952 9.952 0 0 0-1.933 1.866 8.604 8.604 0 0 0-1.283 2.28 7.476 7.476 0 0 0-.467 2.63 7.359 7.359 0 0 0 .737 3.32 7.845 7.845 0 0 0 1.933 2.485 8.491 8.491 0 0 0 2.715 1.55 9.306 9.306 0 0 0 3.088.531 13.155 13.155 0 0 0 5.243-1.032 14.004 14.004 0 0 0 3.966-2.569s3.057 3.102 3.253 3.296h5.205zm-11.032 3.02a5.52 5.52 0 0 1-1.824-.313 4.83 4.83 0 0 1-1.575-.912 4.479 4.479 0 0 1-1.533-3.498 5.476 5.476 0 0 1 .957-3.102 7.783 7.783 0 0 1 2.683-2.357l7.6 7.671a10.02 10.02 0 0 1-2.637 1.765 8.724 8.724 0 0 1-3.671.746zM157.78 6.259l-7.395 6.825-3.187-3.812L158.405.001h4.835v40.273h-5.46zm26.506 9.328h.229a10.097 10.097 0 0 1 4.437-.91 13.84 13.84 0 0 1 4.38.74 11.692 11.692 0 0 1 4.01 2.303 11.955 11.955 0 0 1 2.929 3.983 13.31 13.31 0 0 1 1.138 5.716 14.53 14.53 0 0 1-1.11 5.888 12.088 12.088 0 0 1-7.366 6.797 16.517 16.517 0 0 1-5.347.852 15.509 15.509 0 0 1-5.347-.909 13.106 13.106 0 0 1-4.381-2.617 12.71 12.71 0 0 1-2.985-4.096 12.535 12.535 0 0 1-1.109-5.347 18.69 18.69 0 0 1 .284-3.412 16.208 16.208 0 0 1 .825-2.929 22.147 22.147 0 0 1 1.28-2.732q.738-1.335 1.65-2.815L187.984 0h6.427zm-5.062 12.23a9.195 9.195 0 0 0 .598 3.357 7.553 7.553 0 0 0 1.706 2.643 7.894 7.894 0 0 0 2.644 1.736 9.62 9.62 0 0 0 6.828 0 7.897 7.897 0 0 0 2.644-1.736 7.575 7.575 0 0 0 1.707-2.643 9.72 9.72 0 0 0 0-6.712 7.596 7.596 0 0 0-1.707-2.648A7.932 7.932 0 0 0 191 20.081a9.622 9.622 0 0 0-6.828 0 7.93 7.93 0 0 0-2.644 1.733 7.574 7.574 0 0 0-1.706 2.648 9.182 9.182 0 0 0-.598 3.355zm-56.876 13.139l-3.98-1.228L136.57 3.375l3.925 1.227zM104.921 25.37h-.227a10.063 10.063 0 0 1-4.436.91 13.757 13.757 0 0 1-4.38-.74 11.594 11.594 0 0 1-4.01-2.302 11.958 11.958 0 0 1-2.931-3.983 13.313 13.313 0 0 1-1.137-5.717 14.406 14.406 0 0 1 1.11-5.83 12.352 12.352 0 0 1 2.985-4.238 12.713 12.713 0 0 1 4.38-2.588A15.992 15.992 0 0 1 101.623 0a15.552 15.552 0 0 1 5.347.91 13.105 13.105 0 0 1 4.38 2.617 12.71 12.71 0 0 1 2.986 4.095 12.554 12.554 0 0 1 1.11 5.348 18.868 18.868 0 0 1-.284 3.412 16.427 16.427 0 0 1-.826 2.93 24.237 24.237 0 0 1-1.28 2.759q-.74 1.365-1.65 2.787l-10.182 16.098h-6.427zm5.064-12.23a9.163 9.163 0 0 0-.598-3.356 7.585 7.585 0 0 0-1.707-2.646 7.92 7.92 0 0 0-2.645-1.733 9.616 9.616 0 0 0-6.826 0 7.947 7.947 0 0 0-2.645 1.733 7.579 7.579 0 0 0-1.706 2.646 9.186 9.186 0 0 0-.597 3.356 9.183 9.183 0 0 0 .597 3.356 7.583 7.583 0 0 0 1.706 2.646 7.94 7.94 0 0 0 2.645 1.735 9.622 9.622 0 0 0 6.826 0 7.911 7.911 0 0 0 2.645-1.735 7.59 7.59 0 0 0 1.707-2.646 9.16 9.16 0 0 0 .598-3.356zM309.13 6.939l-7.394 6.827-3.185-3.811L309.757.682h4.836v40.274h-5.462zm36.726-1.479h-19.511V.682h25.313v4.665l-16.04 35.609h-6.143zM222.832 30.939a8.21 8.21 0 0 0-2.165-1.15 25.935 25.935 0 0 0-2.84-.844q-1.275-.319-2.229-.594a7.283 7.283 0 0 1-1.568-.625 2.508 2.508 0 0 1-.899-.8 2.15 2.15 0 0 1-.284-1.166 2.357 2.357 0 0 1 .923-1.99 4.847 4.847 0 0 1 2.954-.727 8.025 8.025 0 0 1 1.784.2 9.282 9.282 0 0 1 1.602.515 8.34 8.34 0 0 1 1.272.671 4.412 4.412 0 0 1 .817.66l.117.13 1.617-2.916-.088-.066a12.988 12.988 0 0 0-3.134-1.669 11.012 11.012 0 0 0-3.9-.676 10.49 10.49 0 0 0-2.994.412 7.073 7.073 0 0 0-2.406 1.226 5.871 5.871 0 0 0-1.614 2.014 6.124 6.124 0 0 0-.593 2.738 5.106 5.106 0 0 0 .402 2.125 4.391 4.391 0 0 0 1.18 1.538 6.88 6.88 0 0 0 1.933 1.108 24.94 24.94 0 0 0 2.697.86q1.331.347 2.373.666a9.708 9.708 0 0 1 1.746.7 3.252 3.252 0 0 1 1.076.88 1.997 1.997 0 0 1 .367 1.229 2.056 2.056 0 0 1-.987 1.866 5.406 5.406 0 0 1-2.89.648 9.312 9.312 0 0 1-2.261-.272 14.48 14.48 0 0 1-2.027-.66 10.104 10.104 0 0 1-1.633-.845 6.77 6.77 0 0 1-1.067-.826l-.12-.12-1.607 3.027.083.065a13.18 13.18 0 0 0 3.996 2.094 14.8 14.8 0 0 0 4.577.716 12.527 12.527 0 0 0 2.96-.337 7.327 7.327 0 0 0 2.433-1.062 5.212 5.212 0 0 0 1.664-1.887 5.875 5.875 0 0 0 .609-2.755 5.463 5.463 0 0 0-.492-2.418 4.744 4.744 0 0 0-1.384-1.683zm12.474-10.901l-8.277 20.84h3.721l2.146-5.597h7.775l2.175 5.597h3.69l-8.218-20.84zm4.632 12.586h-6.365l3.237-8.369z" transform="translate(-.86 2)"/><path class="3fe70dd7-7dd1-4ee8-8163-4971eb8506e6" d="M244.534 22.038v3.121h6.873v17.719h3.527V25.159h6.844v-3.121h-17.244z"/><path class="3fe70dd7-7dd1-4ee8-8163-4971eb8506e6" d="M366.585 30.939a8.223 8.223 0 0 0-2.165-1.15 25.884 25.884 0 0 0-2.84-.844q-1.273-.319-2.228-.594a7.254 7.254 0 0 1-1.569-.625 2.505 2.505 0 0 1-.898-.801 2.144 2.144 0 0 1-.285-1.165 2.389 2.389 0 0 1 .922-1.99 4.849 4.849 0 0 1 2.955-.727 8.012 8.012 0 0 1 1.784.2 9.278 9.278 0 0 1 1.602.515 8.34 8.34 0 0 1 1.273.671 4.39 4.39 0 0 1 .816.66l.117.13 1.617-2.916-.088-.066a12.944 12.944 0 0 0-3.133-1.669 11.012 11.012 0 0 0-3.902-.676 10.497 10.497 0 0 0-2.994.412 7.078 7.078 0 0 0-2.405 1.226 5.897 5.897 0 0 0-1.614 2.014 6.127 6.127 0 0 0-.593 2.738 5.104 5.104 0 0 0 .403 2.125 4.4 4.4 0 0 0 1.178 1.538 6.881 6.881 0 0 0 1.935 1.108 25.02 25.02 0 0 0 2.697.86q1.33.347 2.373.666a9.639 9.639 0 0 1 1.745.7 3.278 3.278 0 0 1 1.077.879 2.008 2.008 0 0 1 .365 1.23 2.055 2.055 0 0 1-.986 1.866 5.399 5.399 0 0 1-2.89.648 9.318 9.318 0 0 1-2.261-.272 14.54 14.54 0 0 1-2.027-.66 10.087 10.087 0 0 1-1.632-.846 6.742 6.742 0 0 1-1.067-.825l-.12-.12-1.608 3.027.084.065a13.178 13.178 0 0 0 3.996 2.093 14.782 14.782 0 0 0 4.577.717 12.503 12.503 0 0 0 2.958-.337 7.32 7.32 0 0 0 2.434-1.062 5.206 5.206 0 0 0 1.664-1.887 5.87 5.87 0 0 0 .609-2.755 5.453 5.453 0 0 0-.491-2.418 4.759 4.759 0 0 0-1.385-1.683zm20.584-.336a13.18 13.18 0 0 1-.273 2.686 6.956 6.956 0 0 1-.912 2.308 4.982 4.982 0 0 1-1.683 1.627 5.108 5.108 0 0 1-2.633.62 5.216 5.216 0 0 1-2.62-.607 4.811 4.811 0 0 1-1.697-1.611 6.946 6.946 0 0 1-.912-2.309 13.26 13.26 0 0 1-.272-2.714V20.038h-3.498v10.565a16.022 16.022 0 0 0 .468 3.888 9.574 9.574 0 0 0 1.527 3.334 7.665 7.665 0 0 0 2.785 2.33 9.352 9.352 0 0 0 4.219.868 9.527 9.527 0 0 0 4.128-.824 7.637 7.637 0 0 0 2.815-2.256 9.392 9.392 0 0 0 1.588-3.321 15.821 15.821 0 0 0 .496-4.019V20.038h-3.526z" transform="translate(-.86 2)"/><path class="3fe70dd7-7dd1-4ee8-8163-4971eb8506e6" d="M408.232 22.067v14.585L396.68 22.086l-2.774-.048v20.84h3.498v-14.27l11.434 14.223 2.92.047V22.067h-3.526z"/><path class="3fe70dd7-7dd1-4ee8-8163-4971eb8506e6" d="M9.448 59.505a6.204 6.204 0 0 0-2.876-.693c-1.638 0-2.373.882-2.373 1.785 0 1.154.798 1.68 2.772 2.582 2.582 1.154 3.737 2.646 3.737 4.766 0 2.814-2.12 4.87-5.879 4.87a8.644 8.644 0 0 1-3.968-.901l.609-2.604a7.24 7.24 0 0 0 3.485.902c1.722 0 2.625-.818 2.625-2.015 0-1.155-.777-1.848-2.562-2.624-2.435-1.05-3.947-2.562-3.947-4.661 0-2.646 2.078-4.682 5.564-4.682a7.815 7.815 0 0 1 3.464.734zm13.335 9.532c0 1.386.063 2.583.105 3.57h-2.709l-.147-1.555h-.063a3.902 3.902 0 0 1-3.36 1.785c-2.225 0-3.736-1.449-3.736-4.955v-6.97h3.107v6.508c0 1.764.504 2.876 1.785 2.876a2.019 2.019 0 0 0 1.91-2.183v-7.201h3.108zm19.003 3.57h-3.044v-6.614c0-1.68-.462-2.792-1.701-2.792-.86 0-1.827.672-1.827 2.308v7.098H32.17v-6.908c0-1.386-.441-2.498-1.659-2.498a2.11 2.11 0 0 0-1.868 2.372v7.034h-3.045v-8.168a81.48 81.48 0 0 0-.084-3.506h2.646l.147 1.553h.063a3.823 3.823 0 0 1 3.317-1.805 3.052 3.052 0 0 1 2.981 1.952h.042a3.986 3.986 0 0 1 3.465-1.952c2.036 0 3.611 1.448 3.611 4.828zm4.287-13.229a1.658 1.658 0 1 1 1.68-1.658 1.598 1.598 0 0 1-1.68 1.658zm1.574 13.229H44.54V60.912h3.107zm3.298-13.837l3.065-.903v3.045h2.583V63.2H54.01v5.08c0 1.407.441 1.995 1.386 1.995a4.532 4.532 0 0 0 1.008-.105l.042 2.372a6.263 6.263 0 0 1-2.079.273c-3.36 0-3.422-2.918-3.422-4.22V63.2h-1.533v-2.29h1.533zm17.785 7.895c0 4.45-2.855 6.172-5.459 6.172-3.15 0-5.417-2.225-5.417-6.025 0-3.927 2.373-6.152 5.543-6.152 3.275 0 5.333 2.457 5.333 6.005zm-5.396-3.716c-1.722 0-2.33 2.015-2.33 3.8 0 2.079.797 3.8 2.309 3.8 1.47 0 2.268-1.743 2.268-3.821 0-1.827-.651-3.78-2.247-3.78zm23.832 9.658h-3.044v-6.614c0-1.68-.462-2.792-1.7-2.792-.861 0-1.827.672-1.827 2.308v7.098H77.55v-6.908c0-1.386-.44-2.498-1.658-2.498a2.11 2.11 0 0 0-1.869 2.372v7.034h-3.044v-8.168a81.48 81.48 0 0 0-.084-3.506h2.645l.147 1.553h.063a3.823 3.823 0 0 1 3.317-1.805 3.052 3.052 0 0 1 2.982 1.952h.042a3.986 3.986 0 0 1 3.464-1.952c2.037 0 3.612 1.448 3.612 4.828zm12.959-5.942c0 4.45-2.856 6.172-5.46 6.172-3.149 0-5.416-2.225-5.416-6.025 0-3.927 2.372-6.152 5.543-6.152 3.275 0 5.333 2.457 5.333 6.005zm-5.396-3.716c-1.722 0-2.331 2.015-2.331 3.8 0 2.079.798 3.8 2.31 3.8 1.47 0 2.267-1.743 2.267-3.821 0-1.827-.65-3.78-2.246-3.78zm12.348 9.658V56.46h8.65v2.604h-5.543v4.262h5.165v2.54h-5.165v6.74zm20.977-3.57c0 1.386.063 2.583.105 3.57h-2.709l-.147-1.555h-.063a3.902 3.902 0 0 1-3.36 1.785c-2.225 0-3.736-1.449-3.736-4.955v-6.97h3.107v6.508c0 1.764.504 2.876 1.785 2.876a2.019 2.019 0 0 0 1.91-2.183v-7.201h3.108zm12.872.231c0 1.176.042 2.478.084 3.339h-2.73l-.146-1.66h-.063a3.676 3.676 0 0 1-3.297 1.89c-2.645 0-4.535-2.435-4.535-5.984 0-3.988 2.205-6.172 4.724-6.172a3.108 3.108 0 0 1 2.814 1.364h.042v-6.319h3.107zm-3.107-3.59c0-1.701-1.029-2.54-2.058-2.54-1.595 0-2.393 1.637-2.393 3.674 0 2.12.882 3.527 2.351 3.527.924 0 2.1-.672 2.1-2.52zm16.127.987c0 4.45-2.855 6.172-5.459 6.172-3.15 0-5.417-2.225-5.417-6.025 0-3.927 2.373-6.152 5.543-6.152 3.276 0 5.333 2.457 5.333 6.005zm-5.396-3.716c-1.721 0-2.33 2.015-2.33 3.8 0 2.079.798 3.8 2.31 3.8 1.469 0 2.267-1.743 2.267-3.821 0-1.827-.651-3.78-2.247-3.78zm13.797.545a4.826 4.826 0 0 0-2.205-.609c-.945 0-1.449.484-1.449 1.113 0 .65.441.987 1.785 1.554 1.974.819 2.897 1.952 2.897 3.569 0 2.226-1.68 3.695-4.598 3.695a6.823 6.823 0 0 1-3.296-.776l.588-2.248a6.139 6.139 0 0 0 2.73.778c1.091 0 1.616-.462 1.616-1.176s-.399-1.092-1.68-1.638c-2.183-.882-2.981-2.12-2.981-3.401 0-2.1 1.68-3.695 4.283-3.695a6.365 6.365 0 0 1 2.898.65zm11.885 6.341a17.665 17.665 0 0 0 .168 2.772h-2.793l-.189-1.219h-.063a3.753 3.753 0 0 1-3.107 1.45 3.396 3.396 0 0 1-3.506-3.506c0-3.003 2.666-4.41 6.382-4.41 0-1.155-.398-2.037-2.1-2.037a5.7 5.7 0 0 0-2.876.798l-.587-2.016a8.232 8.232 0 0 1 4.052-.986c3.632 0 4.619 2.309 4.619 4.871zm-3.024-2.919c-1.68 0-3.422.4-3.422 2.1a1.425 1.425 0 0 0 1.47 1.596 1.944 1.944 0 0 0 1.953-2.016zM187 72.607h-3.108v-6.824c0-1.428-.462-2.562-1.785-2.562-.84 0-1.994.652-1.994 2.436v6.95h-3.108v-8.168a81.48 81.48 0 0 0-.084-3.506h2.688l.147 1.574h.063a3.935 3.935 0 0 1 3.38-1.826c2.142 0 3.8 1.49 3.8 4.766zm15.35-13.102a6.204 6.204 0 0 0-2.876-.693c-1.638 0-2.373.882-2.373 1.785 0 1.154.798 1.68 2.772 2.582 2.582 1.154 3.737 2.646 3.737 4.766 0 2.814-2.12 4.87-5.88 4.87a8.644 8.644 0 0 1-3.967-.901l.609-2.604a7.24 7.24 0 0 0 3.485.902c1.722 0 2.624-.818 2.624-2.015 0-1.155-.776-1.848-2.561-2.624-2.436-1.05-3.947-2.562-3.947-4.661 0-2.646 2.078-4.682 5.564-4.682a7.815 7.815 0 0 1 3.464.734zm13.46 13.102h-3.107v-6.74c0-1.49-.462-2.646-1.806-2.646a2.038 2.038 0 0 0-1.973 2.288v7.098h-3.108v-16.88h3.108v6.59h.042a3.812 3.812 0 0 1 3.128-1.657c2.079 0 3.717 1.511 3.717 4.955zm4.307-13.229a1.658 1.658 0 1 1 1.68-1.658 1.598 1.598 0 0 1-1.68 1.658zm1.574 13.229h-3.107V60.912h3.107zm12.788 0h-3.108v-6.824c0-1.428-.46-2.562-1.784-2.562a2.138 2.138 0 0 0-1.995 2.436v6.95h-3.108v-8.168c0-1.365-.04-2.478-.084-3.506h2.688l.147 1.574h.064a3.934 3.934 0 0 1 3.38-1.826c2.141 0 3.8 1.49 3.8 4.766zm6.175-1.135c0 1.932-.105 6.152-5.459 6.152l-.295-2.435c2.479-.19 2.647-1.533 2.647-4.493v-9.784h3.107zm-1.575-12.094a1.658 1.658 0 1 1 1.68-1.658 1.598 1.598 0 0 1-1.68 1.658zm14.216 9.659c0 1.386.062 2.583.104 3.57h-2.708l-.147-1.555h-.064a3.9 3.9 0 0 1-3.359 1.785c-2.225 0-3.736-1.449-3.736-4.955v-6.97h3.107v6.508c0 1.764.504 2.876 1.784 2.876a2.019 2.019 0 0 0 1.911-2.183v-7.201h3.108zm13.165 3.57h-3.694l-2.73-4.998-.82 1.113v3.885h-3.107v-16.88h3.108v10.286h.063a15.582 15.582 0 0 1 .777-1.448l2.33-3.653H266l-3.821 4.808zm11.067-3.57c0 1.386.064 2.583.106 3.57h-2.71l-.146-1.555h-.062a3.904 3.904 0 0 1-3.36 1.785c-2.226 0-3.738-1.449-3.738-4.955v-6.97h3.108v6.508c0 1.764.504 2.876 1.785 2.876a2.018 2.018 0 0 0 1.91-2.183v-7.201h3.107zm19.193 2.939a14.283 14.283 0 0 1-4.597.799 7.695 7.695 0 0 1-5.69-1.975 8.54 8.54 0 0 1-2.183-6.13c0-5.46 3.632-8.378 8.271-8.378a9.274 9.274 0 0 1 3.78.672l-.65 2.562a7.09 7.09 0 0 0-3.087-.588c-2.877 0-5.06 1.764-5.06 5.669 0 3.737 1.994 5.627 4.661 5.627a4.327 4.327 0 0 0 1.596-.23v-3.948h-2.331V63.6h5.29zm8.989-8.293a4.382 4.382 0 0 0-.797-.062c-1.407 0-2.478.944-2.478 2.939v6.047h-3.108v-8.042c0-1.448-.04-2.604-.084-3.653h2.667l.126 2.037h.084a3.24 3.24 0 0 1 2.898-2.29 3.306 3.306 0 0 1 .692.063zm10.457 6.152a17.784 17.784 0 0 0 .168 2.772h-2.792l-.188-1.219h-.064a3.753 3.753 0 0 1-3.107 1.45 3.396 3.396 0 0 1-3.507-3.506c0-3.003 2.667-4.41 6.383-4.41 0-1.155-.399-2.037-2.1-2.037a5.7 5.7 0 0 0-2.876.798l-.588-2.016a8.23 8.23 0 0 1 4.052-.986c3.633 0 4.619 2.309 4.619 4.871zm-3.023-2.919c-1.68 0-3.422.4-3.422 2.1a1.425 1.425 0 0 0 1.47 1.596 1.944 1.944 0 0 0 1.952-2.016zm15.791 5.691h-3.108v-6.824c0-1.428-.46-2.562-1.784-2.562a2.138 2.138 0 0 0-1.995 2.436v6.95h-3.108v-8.168c0-1.365-.04-2.478-.084-3.506h2.688l.147 1.574h.064a3.934 3.934 0 0 1 3.38-1.826c2.141 0 3.8 1.49 3.8 4.766zm12.831-3.339c0 1.176.042 2.478.084 3.339h-2.73l-.146-1.66h-.064a3.675 3.675 0 0 1-3.296 1.89c-2.646 0-4.535-2.435-4.535-5.984 0-3.988 2.204-6.172 4.724-6.172a3.109 3.109 0 0 1 2.813 1.364h.042v-6.319h3.108zm-3.108-3.59c0-1.701-1.028-2.54-2.057-2.54-1.596 0-2.394 1.637-2.394 3.674 0 2.12.882 3.527 2.352 3.527.923 0 2.1-.672 2.1-2.52zm20.391-6.53h-3.99v13.459h-3.107v-13.46h-3.969V56.46h11.066zm11.864 7.517c0 4.45-2.855 6.172-5.459 6.172-3.148 0-5.416-2.225-5.416-6.025 0-3.927 2.372-6.152 5.543-6.152 3.275 0 5.332 2.457 5.332 6.005zm-5.395-3.716c-1.722 0-2.331 2.015-2.331 3.8 0 2.079.798 3.8 2.31 3.8 1.469 0 2.268-1.743 2.268-3.821 0-1.827-.652-3.78-2.247-3.78zm22.825-2.037l-3.422 11.695h-2.815l-1.175-4.473a42.152 42.152 0 0 1-.756-3.674h-.041a28.978 28.978 0 0 1-.777 3.674l-1.282 4.473h-2.812l-3.255-11.695h3.212l.987 5.123c.231 1.238.462 2.498.63 3.737h.062c.211-1.24.547-2.54.82-3.695l1.302-5.165h2.457l1.238 5.017c.336 1.344.61 2.583.818 3.843h.064c.147-1.24.378-2.5.651-3.843l1.049-5.017zm10.502 11.232a9.902 9.902 0 0 1-3.78.672c-3.61 0-5.67-2.268-5.67-5.9 0-3.359 1.932-6.256 5.355-6.256 2.835 0 4.683 2.015 4.683 5.795a7.218 7.218 0 0 1-.084 1.238h-6.993c.084 1.995 1.512 2.793 3.192 2.793a8.53 8.53 0 0 0 2.855-.483zm-2.29-6.613c.022-1.218-.461-2.71-1.993-2.71-1.492 0-2.122 1.555-2.206 2.71zm11.425-1.848a4.382 4.382 0 0 0-.797-.062c-1.408 0-2.479.944-2.479 2.939v6.047h-3.107v-8.042c0-1.448-.041-2.604-.084-3.653h2.667l.126 2.037h.084a3.24 3.24 0 0 1 2.897-2.29 3.306 3.306 0 0 1 .693.063zm15.141-6.971v2.562h-5.397l-.42 3.107a5.828 5.828 0 0 1 .883-.063c2.771 0 5.375 1.555 5.375 4.976 0 3.045-2.331 5.543-6.069 5.543a8.566 8.566 0 0 1-3.78-.818l.61-2.352a6.82 6.82 0 0 0 3.002.735 2.891 2.891 0 0 0 3.108-2.856c0-1.91-1.407-2.981-4.094-2.981a14.435 14.435 0 0 0-1.785.104l.966-7.957zm3.634 2.058l3.064-.903v3.045h2.583V63.2h-2.583v5.08c0 1.407.442 1.995 1.387 1.995a4.539 4.539 0 0 0 1.008-.105l.04 2.372a6.262 6.262 0 0 1-2.077.273c-3.36 0-3.422-2.918-3.422-4.22V63.2h-1.533v-2.29h1.533zm17.574 13.837h-3.107v-6.74c0-1.49-.461-2.646-1.805-2.646a2.038 2.038 0 0 0-1.975 2.288v7.098h-3.107v-16.88h3.107v6.59h.043a3.812 3.812 0 0 1 3.128-1.657c2.08 0 3.716 1.511 3.716 4.955zm7.479 0V56.46h8.65v2.604h-5.543v4.262h5.164v2.54h-5.164v6.74zm14.214 0h-3.107v-16.88h3.107zm12.999-5.942c0 4.45-2.856 6.172-5.46 6.172-3.15 0-5.417-2.225-5.417-6.025 0-3.927 2.373-6.152 5.543-6.152 3.275 0 5.334 2.457 5.334 6.005zm-5.397-3.716c-1.722 0-2.33 2.015-2.33 3.8 0 2.079.797 3.8 2.309 3.8 1.47 0 2.267-1.743 2.267-3.821 0-1.827-.65-3.78-2.246-3.78zm17.85 3.716c0 4.45-2.856 6.172-5.46 6.172-3.15 0-5.417-2.225-5.417-6.025 0-3.927 2.373-6.152 5.543-6.152 3.275 0 5.334 2.457 5.334 6.005zm-5.397-3.716c-1.721 0-2.33 2.015-2.33 3.8 0 2.079.797 3.8 2.309 3.8 1.47 0 2.267-1.743 2.267-3.821 0-1.827-.65-3.78-2.246-3.78zm14.028.734a4.382 4.382 0 0 0-.797-.062c-1.408 0-2.479.944-2.479 2.939v6.047h-3.107v-8.042c0-1.448-.041-2.604-.084-3.653h2.667l.126 2.037h.084a3.24 3.24 0 0 1 2.897-2.29 3.306 3.306 0 0 1 .693.063z" transform="translate(-.86 2)"/></svg>