<svg id="5da50ed0-1839-4ed3-adcc-0e6101993664" data-name="レイヤー 1" xmlns="http://www.w3.org/2000/svg" width="499.24268" height="79.62449" viewBox="0 0 499.24268 79.62449">
  <defs>
    <style>
      .f864e418-ccfa-454e-b017-723ced3f1c33 {
        fill: none;
        stroke: #fff;
        stroke-linecap: round;
        stroke-linejoin: round;
        stroke-width: 4px;
      }

      .\33 fe70dd7-7dd1-4ee8-8163-4971eb8506e6 {
        fill: #025392;
      }
    </style>
  </defs>
  <title>wct2017-date-en</title>
  <g>
    <g>
      <path class="f864e418-ccfa-454e-b017-723ced3f1c33" d="M290.42675,34.5088a15.273,15.273,0,0,0,1.8047-3.8018,15.462,15.462,0,0,0,.7178-4.3809l.0078-.3442h-3.4248c-.0225.3423-.0694.7695-.1026,1.0801a14.599,14.599,0,0,1-.5654,2.7344,12.9131,12.9131,0,0,1-.9014,2.1997l-7.4941-7.6221a15.49192,15.49192,0,0,1-1.207-1.3433,7.94351,7.94351,0,0,1-.7979-1.2187,5.586,5.586,0,0,1-.458-1.1529,4.65,4.65,0,0,1-.1494-1.1835A3.89656,3.89656,0,0,1,278.125,18.02a3.42256,3.42256,0,0,1,.76179-1.1587,3.4787,3.4787,0,0,1,1.1836-.7691,4.2429,4.2429,0,0,1,1.582-.2783,3.4845,3.4845,0,0,1,1.39061.2559,3.52594,3.52594,0,0,1,1.02149.6572,3.62745,3.62745,0,0,1,.6943.8838,4.2247,4.2247,0,0,1,.3965.9512,6.01572,6.01572,0,0,1,.1533,1.0332c.3301-.0532,3.584-.6787,3.584-.6787l-.0215-.2969a6.08885,6.08885,0,0,0-.6289-2.3184,6.43725,6.43725,0,0,0-1.5019-1.9516,7.45428,7.45428,0,0,0-2.2344-1.3408,7.77229,7.77229,0,0,0-2.8535-.5083,8.76081,8.76081,0,0,0-3.166.5459,7.25216,7.25216,0,0,0-2.4151,1.4907,6.47218,6.47218,0,0,0-1.5302,2.2304,7.10182,7.10182,0,0,0-.5274,2.7271,8.08568,8.08568,0,0,0,.57231,2.9873A11.459,11.459,0,0,0,276.08,25.0713a12.83275,12.83275,0,0,0-2.0439,1.2231,9.95227,9.95227,0,0,0-1.9326,1.8657,8.60447,8.60447,0,0,0-1.2832,2.2793,7.47552,7.47552,0,0,0-.4668,2.6314,7.35865,7.35865,0,0,0,.7363,3.3188,7.8451,7.8451,0,0,0,1.9336,2.4854,8.491,8.491,0,0,0,2.7148,1.5493,9.30619,9.30619,0,0,0,3.0879.5317,13.15451,13.15451,0,0,0,5.2432-1.0317,14.0036,14.0036,0,0,0,3.9658-2.5689s3.0566,3.1016,3.2529,3.2959h5.2051Zm-11.0322,3.0205a5.51991,5.51991,0,0,1-1.8233-.313,4.82947,4.82947,0,0,1-1.5752-.9126,4.47891,4.47891,0,0,1-1.5332-3.4981,5.47553,5.47553,0,0,1,.95711-3.102,7.783,7.783,0,0,1,2.68259-2.3565l7.6006,7.6714a10.02048,10.02048,0,0,1-2.6368,1.7647A8.72369,8.72369,0,0,1,279.39455,37.5293Z" transform="translate(-0.86084 2)"/>
      <g>
        <g>
          <path class="f864e418-ccfa-454e-b017-723ced3f1c33" d="M157.77925,6.2588l-7.3945,6.8256-3.1865-3.812,11.207-9.2715h4.835V40.2744h-5.461Z" transform="translate(-0.86084 2)"/>
          <path class="f864e418-ccfa-454e-b017-723ced3f1c33" d="M184.28615,15.5869h.2285a10.0971,10.0971,0,0,1,4.4375-.9097,13.84025,13.84025,0,0,1,4.3799.7393,11.69207,11.69207,0,0,1,4.0097,2.3032,11.955,11.955,0,0,1,2.92921,3.9829,13.31074,13.31074,0,0,1,1.13769,5.7163,14.53082,14.53082,0,0,1-1.1093,5.8877,12.088,12.088,0,0,1-7.3663,6.7974,16.51663,16.51663,0,0,1-5.34709.852,15.509,15.509,0,0,1-5.34721-.9087,13.10607,13.10607,0,0,1-4.3809-2.6176,12.70907,12.70907,0,0,1-2.9853-4.0958,12.53537,12.53537,0,0,1-1.1084-5.3466,18.69053,18.69053,0,0,1,.2842-3.4126,16.208,16.208,0,0,1,.8242-2.9287,22.14708,22.14708,0,0,1,1.2798-2.7315q.739-1.33515,1.6499-2.8159L187.98485.0009h6.4272Zm-5.062,12.2304a9.19478,9.19478,0,0,0,.5976,3.3565,7.55285,7.55285,0,0,0,1.7066,2.6435,7.8944,7.8944,0,0,0,2.644,1.7359,9.62024,9.62024,0,0,0,6.8272,0,7.89744,7.89744,0,0,0,2.6445-1.7359,7.57489,7.57489,0,0,0,1.707-2.6435,9.7203,9.7203,0,0,0,0-6.7119,7.59611,7.59611,0,0,0-1.707-2.6475,7.93212,7.93212,0,0,0-2.6445-1.7339,9.62168,9.62168,0,0,0-6.8272,0,7.92906,7.92906,0,0,0-2.644,1.7339,7.574,7.574,0,0,0-1.7066,2.6475A9.18158,9.18158,0,0,0,179.22415,27.8173Z" transform="translate(-0.86084 2)"/>
        </g>
        <g>
          <path class="f864e418-ccfa-454e-b017-723ced3f1c33" d="M157.77925,6.2588l-7.3945,6.8256-3.1865-3.812,11.207-9.2715h4.835V40.2744h-5.461Z" transform="translate(-0.86084 2)"/>
          <path class="f864e418-ccfa-454e-b017-723ced3f1c33" d="M184.28615,15.5869h.2285a10.0971,10.0971,0,0,1,4.4375-.9097,13.84025,13.84025,0,0,1,4.3799.7393,11.69207,11.69207,0,0,1,4.0097,2.3032,11.955,11.955,0,0,1,2.92921,3.9829,13.31074,13.31074,0,0,1,1.13769,5.7163,14.53082,14.53082,0,0,1-1.1093,5.8877,12.088,12.088,0,0,1-7.3663,6.7974,16.51663,16.51663,0,0,1-5.34709.852,15.509,15.509,0,0,1-5.34721-.9087,13.10607,13.10607,0,0,1-4.3809-2.6176,12.70907,12.70907,0,0,1-2.9853-4.0958,12.53537,12.53537,0,0,1-1.1084-5.3466,18.69053,18.69053,0,0,1,.2842-3.4126,16.208,16.208,0,0,1,.8242-2.9287,22.14708,22.14708,0,0,1,1.2798-2.7315q.739-1.33515,1.6499-2.8159L187.98485.0009h6.4272Zm-5.062,12.2304a9.19478,9.19478,0,0,0,.5976,3.3565,7.55285,7.55285,0,0,0,1.7066,2.6435,7.8944,7.8944,0,0,0,2.644,1.7359,9.62024,9.62024,0,0,0,6.8272,0,7.89744,7.89744,0,0,0,2.6445-1.7359,7.57489,7.57489,0,0,0,1.707-2.6435,9.7203,9.7203,0,0,0,0-6.7119,7.59611,7.59611,0,0,0-1.707-2.6475,7.93212,7.93212,0,0,0-2.6445-1.7339,9.62168,9.62168,0,0,0-6.8272,0,7.92906,7.92906,0,0,0-2.644,1.7339,7.574,7.574,0,0,0-1.7066,2.6475A9.18158,9.18158,0,0,0,179.22415,27.8173Z" transform="translate(-0.86084 2)"/>
        </g>
        <g>
          <path class="f864e418-ccfa-454e-b017-723ced3f1c33" d="M157.77925,6.2588l-7.3945,6.8256-3.1865-3.812,11.207-9.2715h4.835V40.2744h-5.461Z" transform="translate(-0.86084 2)"/>
          <path class="f864e418-ccfa-454e-b017-723ced3f1c33" d="M184.28615,15.5869h.2285a10.0971,10.0971,0,0,1,4.4375-.9097,13.84025,13.84025,0,0,1,4.3799.7393,11.69207,11.69207,0,0,1,4.0097,2.3032,11.955,11.955,0,0,1,2.92921,3.9829,13.31074,13.31074,0,0,1,1.13769,5.7163,14.53082,14.53082,0,0,1-1.1093,5.8877,12.088,12.088,0,0,1-7.3663,6.7974,16.51663,16.51663,0,0,1-5.34709.852,15.509,15.509,0,0,1-5.34721-.9087,13.10607,13.10607,0,0,1-4.3809-2.6176,12.70907,12.70907,0,0,1-2.9853-4.0958,12.53537,12.53537,0,0,1-1.1084-5.3466,18.69053,18.69053,0,0,1,.2842-3.4126,16.208,16.208,0,0,1,.8242-2.9287,22.14708,22.14708,0,0,1,1.2798-2.7315q.739-1.33515,1.6499-2.8159L187.98485.0009h6.4272Zm-5.062,12.2304a9.19478,9.19478,0,0,0,.5976,3.3565,7.55285,7.55285,0,0,0,1.7066,2.6435,7.8944,7.8944,0,0,0,2.644,1.7359,9.62024,9.62024,0,0,0,6.8272,0,7.89744,7.89744,0,0,0,2.6445-1.7359,7.57489,7.57489,0,0,0,1.707-2.6435,9.7203,9.7203,0,0,0,0-6.7119,7.59611,7.59611,0,0,0-1.707-2.6475,7.93212,7.93212,0,0,0-2.6445-1.7339,9.62168,9.62168,0,0,0-6.8272,0,7.92906,7.92906,0,0,0-2.644,1.7339,7.574,7.574,0,0,0-1.7066,2.6475A9.18158,9.18158,0,0,0,179.22415,27.8173Z" transform="translate(-0.86084 2)"/>
        </g>
      </g>
      <path class="f864e418-ccfa-454e-b017-723ced3f1c33" d="M122.34815,40.956l-3.981-1.2275,18.2027-36.355,3.9253,1.2275Z" transform="translate(-0.86084 2)"/>
      <g>
        <path class="f864e418-ccfa-454e-b017-723ced3f1c33" d="M104.92135,25.3701h-.2275a10.0625,10.0625,0,0,1-4.436.9096,13.75737,13.75737,0,0,1-4.37989-.7402,11.59428,11.59428,0,0,1-4.01031-2.3017,11.95812,11.95812,0,0,1-2.9306-3.983,13.31258,13.31258,0,0,1-1.1368-5.7167,14.40562,14.40562,0,0,1,1.1094-5.8306,12.35163,12.35163,0,0,1,2.9854-4.2378A12.71319,12.71319,0,0,1,96.27485.8818,15.99213,15.99213,0,0,1,101.62305,0a15.55223,15.55223,0,0,1,5.3467.9096,13.10508,13.10508,0,0,1,4.3798,2.6172,12.70921,12.70921,0,0,1,2.9869,4.0957,12.55357,12.55357,0,0,1,1.1093,5.3472,18.86825,18.86825,0,0,1-.2841,3.4121,16.42733,16.42733,0,0,1-.8252,2.9302,24.23719,24.23719,0,0,1-1.2798,2.7588q-.7398,1.36515-1.6504,2.7876L101.22415,40.956h-6.4273Zm5.064-12.2305a9.16316,9.16316,0,0,0-.5982-3.3555,7.58539,7.58539,0,0,0-1.707-2.6464,7.91927,7.91927,0,0,0-2.6455-1.733,9.61622,9.61622,0,0,0-6.8252,0,7.94745,7.94745,0,0,0-2.645,1.733,7.57894,7.57894,0,0,0-1.7066,2.6464,9.18591,9.18591,0,0,0-.5966,3.3555,9.18288,9.18288,0,0,0,.5966,3.356,7.58278,7.58278,0,0,0,1.7066,2.646,7.93926,7.93926,0,0,0,2.645,1.7353,9.622,9.622,0,0,0,6.8252,0,7.91114,7.91114,0,0,0,2.6455-1.7353,7.58923,7.58923,0,0,0,1.707-2.646A9.16014,9.16014,0,0,0,109.98535,13.1396Z" transform="translate(-0.86084 2)"/>
        <path class="f864e418-ccfa-454e-b017-723ced3f1c33" d="M104.92135,25.3701h-.2275a10.0625,10.0625,0,0,1-4.436.9096,13.75737,13.75737,0,0,1-4.37989-.7402,11.59428,11.59428,0,0,1-4.01031-2.3017,11.95812,11.95812,0,0,1-2.9306-3.983,13.31258,13.31258,0,0,1-1.1368-5.7167,14.40562,14.40562,0,0,1,1.1094-5.8306,12.35163,12.35163,0,0,1,2.9854-4.2378A12.71319,12.71319,0,0,1,96.27485.8818,15.99213,15.99213,0,0,1,101.62305,0a15.55223,15.55223,0,0,1,5.3467.9096,13.10508,13.10508,0,0,1,4.3798,2.6172,12.70921,12.70921,0,0,1,2.9869,4.0957,12.55357,12.55357,0,0,1,1.1093,5.3472,18.86825,18.86825,0,0,1-.2841,3.4121,16.42733,16.42733,0,0,1-.8252,2.9302,24.23719,24.23719,0,0,1-1.2798,2.7588q-.7398,1.36515-1.6504,2.7876L101.22415,40.956h-6.4273Zm5.064-12.2305a9.16316,9.16316,0,0,0-.5982-3.3555,7.58539,7.58539,0,0,0-1.707-2.6464,7.91927,7.91927,0,0,0-2.6455-1.733,9.61622,9.61622,0,0,0-6.8252,0,7.94745,7.94745,0,0,0-2.645,1.733,7.57894,7.57894,0,0,0-1.7066,2.6464,9.18591,9.18591,0,0,0-.5966,3.3555,9.18288,9.18288,0,0,0,.5966,3.356,7.58278,7.58278,0,0,0,1.7066,2.646,7.93926,7.93926,0,0,0,2.645,1.7353,9.622,9.622,0,0,0,6.8252,0,7.91114,7.91114,0,0,0,2.6455-1.7353,7.58923,7.58923,0,0,0,1.707-2.646A9.16014,9.16014,0,0,0,109.98535,13.1396Z" transform="translate(-0.86084 2)"/>
        <path class="f864e418-ccfa-454e-b017-723ced3f1c33" d="M104.92135,25.3701h-.2275a10.0625,10.0625,0,0,1-4.436.9096,13.75737,13.75737,0,0,1-4.37989-.7402,11.59428,11.59428,0,0,1-4.01031-2.3017,11.95812,11.95812,0,0,1-2.9306-3.983,13.31258,13.31258,0,0,1-1.1368-5.7167,14.40562,14.40562,0,0,1,1.1094-5.8306,12.35163,12.35163,0,0,1,2.9854-4.2378A12.71319,12.71319,0,0,1,96.27485.8818,15.99213,15.99213,0,0,1,101.62305,0a15.55223,15.55223,0,0,1,5.3467.9096,13.10508,13.10508,0,0,1,4.3798,2.6172,12.70921,12.70921,0,0,1,2.9869,4.0957,12.55357,12.55357,0,0,1,1.1093,5.3472,18.86825,18.86825,0,0,1-.2841,3.4121,16.42733,16.42733,0,0,1-.8252,2.9302,24.23719,24.23719,0,0,1-1.2798,2.7588q-.7398,1.36515-1.6504,2.7876L101.22415,40.956h-6.4273Zm5.064-12.2305a9.16316,9.16316,0,0,0-.5982-3.3555,7.58539,7.58539,0,0,0-1.707-2.6464,7.91927,7.91927,0,0,0-2.6455-1.733,9.61622,9.61622,0,0,0-6.8252,0,7.94745,7.94745,0,0,0-2.645,1.733,7.57894,7.57894,0,0,0-1.7066,2.6464,9.18591,9.18591,0,0,0-.5966,3.3555,9.18288,9.18288,0,0,0,.5966,3.356,7.58278,7.58278,0,0,0,1.7066,2.646,7.93926,7.93926,0,0,0,2.645,1.7353,9.622,9.622,0,0,0,6.8252,0,7.91114,7.91114,0,0,0,2.6455-1.7353,7.58923,7.58923,0,0,0,1.707-2.646A9.16014,9.16014,0,0,0,109.98535,13.1396Z" transform="translate(-0.86084 2)"/>
      </g>
      <g>
        <path class="f864e418-ccfa-454e-b017-723ced3f1c33" d="M309.13085,6.9389l-7.3945,6.8267-3.1856-3.811L309.75685.6821h4.8359V40.956h-5.4619Z" transform="translate(-0.86084 2)"/>
        <path class="f864e418-ccfa-454e-b017-723ced3f1c33" d="M345.85644,5.4604h-19.5117V.6821h25.3134V5.3466l-16.04,35.6094h-6.1436Z" transform="translate(-0.86084 2)"/>
      </g>
      <g>
        <path class="f864e418-ccfa-454e-b017-723ced3f1c33" d="M222.83155,30.9389a8.20939,8.20939,0,0,0-2.16459-1.1494,25.93536,25.93536,0,0,0-2.84031-.8447q-1.2744-.3186-2.2285-.5942a7.28321,7.28321,0,0,1-1.5684-.625,2.50784,2.50784,0,0,1-.8984-.8003,2.15018,2.15018,0,0,1-.2847-1.1656,2.35684,2.35684,0,0,1,.9229-1.9892,4.84663,4.84663,0,0,1,2.9541-.7276,8.02545,8.02545,0,0,1,1.7846.2002,9.28194,9.28194,0,0,1,1.6021.5147,8.34,8.34,0,0,1,1.2715.6714,4.41168,4.41168,0,0,1,.8174.6606l.1171.1294,1.6167-2.916-.0883-.0659a12.98754,12.98754,0,0,0-3.1333-1.669,11.01163,11.01163,0,0,0-3.9009-.6758,10.48922,10.48922,0,0,0-2.9937.4117,7.07336,7.07336,0,0,0-2.4062,1.2255,5.87147,5.87147,0,0,0-1.6138,2.0147,6.12421,6.12421,0,0,0-.5932,2.7373,5.10605,5.10605,0,0,0,.4028,2.1255,4.391,4.391,0,0,0,1.1787,1.5376,6.8796,6.8796,0,0,0,1.9341,1.1084,24.9402,24.9402,0,0,0,2.6963.8603q1.33155.3465,2.3735.6651a9.70762,9.70762,0,0,1,1.7461.7007,3.25209,3.25209,0,0,1,1.0757.8798,1.99664,1.99664,0,0,1,.3667,1.2286,2.05615,2.05615,0,0,1-.9863,1.8667,5.40621,5.40621,0,0,1-2.8907.6474,9.31218,9.31218,0,0,1-2.2607-.2715,14.47989,14.47989,0,0,1-2.02689-.6611,10.10406,10.10406,0,0,1-1.63281-.8447,6.7695,6.7695,0,0,1-1.0674-.8252l-.1191-.1196-1.6079,3.0268.0835.0645a13.18,13.18,0,0,0,3.9961,2.0937,14.79923,14.79923,0,0,0,4.5771.7163,12.52665,12.52665,0,0,0,2.959-.3369,7.32709,7.32709,0,0,0,2.4331-1.0625,5.2124,5.2124,0,0,0,1.6641-1.8867,5.8753,5.8753,0,0,0,.6089-2.7549,5.463,5.463,0,0,0-.4913-2.4185A4.74406,4.74406,0,0,0,222.83155,30.9389Z" transform="translate(-0.86084 2)"/>
        <path class="f864e418-ccfa-454e-b017-723ced3f1c33" d="M235.30615,20.0381l-8.2769,20.8403H230.75l2.146-5.5977h7.77489l2.1748,5.5977h3.691l-8.2183-20.8403ZM239.938,32.624h-6.36521l3.2373-8.3687Z" transform="translate(-0.86084 2)"/>
        <polygon class="f864e418-ccfa-454e-b017-723ced3f1c33" points="244.534 22.038 244.534 25.159 251.407 25.159 251.407 42.878 254.934 42.878 254.934 25.159 261.778 25.159 261.778 22.038 244.534 22.038"/>
      </g>
      <g>
        <path class="f864e418-ccfa-454e-b017-723ced3f1c33" d="M366.585,30.9389a8.22325,8.22325,0,0,0-2.165-1.1494,25.88353,25.88353,0,0,0-2.83992-.8447q-1.2729-.3186-2.2285-.5942a7.25388,7.25388,0,0,1-1.5684-.625,2.50468,2.50468,0,0,1-.8984-.8008,2.14362,2.14362,0,0,1-.2852-1.1651,2.38881,2.38881,0,0,1,.9229-1.9892,4.84866,4.84866,0,0,1,2.9541-.7276,8.01194,8.01194,0,0,1,1.7842.2002,9.27772,9.27772,0,0,1,1.6025.5147,8.3392,8.3392,0,0,1,1.2725.6714,4.39,4.39,0,0,1,.8164.6606l.1172.1294,1.6162-2.916-.0879-.0659a12.944,12.944,0,0,0-3.1328-1.669,11.01248,11.01248,0,0,0-3.9014-.6758,10.497,10.497,0,0,0-2.9941.4117,7.0777,7.0777,0,0,0-2.4053,1.2255,5.89712,5.89712,0,0,0-1.6143,2.0147,6.12711,6.12711,0,0,0-.5927,2.7373,5.10435,5.10435,0,0,0,.4033,2.1255,4.39923,4.39923,0,0,0,1.1777,1.5376,6.88149,6.88149,0,0,0,1.9346,1.1084,25.02,25.02,0,0,0,2.69732.8603q1.33.3465,2.373.6651a9.63856,9.63856,0,0,1,1.74508.7007,3.27754,3.27754,0,0,1,1.0772.8784,2.008,2.008,0,0,1,.3652,1.23,2.05461,2.05461,0,0,1-.9863,1.8667,5.39891,5.39891,0,0,1-2.8906.6474,9.3184,9.3184,0,0,1-2.2608-.2715,14.53921,14.53921,0,0,1-2.0264-.6611,10.08721,10.08721,0,0,1-1.6328-.8447,6.74191,6.74191,0,0,1-1.0664-.8252l-.1201-.1196-1.6084,3.0268.084.0645a13.17844,13.17844,0,0,0,3.9961,2.0932,14.78246,14.78246,0,0,0,4.5771.7168,12.503,12.503,0,0,0,2.958-.3369,7.3208,7.3208,0,0,0,2.4346-1.0625,5.20623,5.20623,0,0,0,1.6631-1.8867A5.86927,5.86927,0,0,0,368.461,35.04a5.45317,5.45317,0,0,0-.49122-2.4185A4.75882,4.75882,0,0,0,366.585,30.9389Z" transform="translate(-0.86084 2)"/>
        <path class="f864e418-ccfa-454e-b017-723ced3f1c33" d="M387.169,30.603a13.17941,13.17941,0,0,1-.27252,2.6855,6.95581,6.95581,0,0,1-.9121,2.3086,4.982,4.982,0,0,1-1.6836,1.6265,5.10756,5.10756,0,0,1-2.63278.6201,5.21579,5.21579,0,0,1-2.62012-.6069,4.81121,4.81121,0,0,1-1.6973-1.6109,6.94649,6.94649,0,0,1-.9111-2.3086,13.26083,13.26083,0,0,1-.27248-2.7143V20.0381h-3.498V30.603a16.02207,16.02207,0,0,0,.46778,3.8877,9.57433,9.57433,0,0,0,1.5273,3.3345,7.66484,7.66484,0,0,0,2.7852,2.3295,9.35213,9.35213,0,0,0,4.21872.8682,9.52726,9.52726,0,0,0,4.12788-.8242,7.63742,7.63742,0,0,0,2.8155-2.2559,9.3923,9.3923,0,0,0,1.5879-3.3213,15.821,15.821,0,0,0,.4961-4.0185V20.0381H387.169Z" transform="translate(-0.86084 2)"/>
        <polygon class="f864e418-ccfa-454e-b017-723ced3f1c33" points="408.232 22.067 408.232 36.652 396.68 22.086 393.906 22.038 393.906 42.878 397.404 42.878 397.404 28.608 408.838 42.831 411.758 42.878 411.758 22.067 408.232 22.067"/>
      </g>
    </g>
    <g>
      <path class="3fe70dd7-7dd1-4ee8-8163-4971eb8506e6" d="M290.42675,34.5088a15.273,15.273,0,0,0,1.8047-3.8018,15.462,15.462,0,0,0,.7178-4.3809l.0078-.3442h-3.4248c-.0225.3423-.0694.7695-.1026,1.0801a14.599,14.599,0,0,1-.5654,2.7344,12.9131,12.9131,0,0,1-.9014,2.1997l-7.4941-7.6221a15.49192,15.49192,0,0,1-1.207-1.3433,7.94351,7.94351,0,0,1-.7979-1.2187,5.586,5.586,0,0,1-.458-1.1529,4.65,4.65,0,0,1-.1494-1.1835A3.89656,3.89656,0,0,1,278.125,18.02a3.42256,3.42256,0,0,1,.76179-1.1587,3.4787,3.4787,0,0,1,1.1836-.7691,4.2429,4.2429,0,0,1,1.582-.2783,3.4845,3.4845,0,0,1,1.39061.2559,3.52594,3.52594,0,0,1,1.02149.6572,3.62745,3.62745,0,0,1,.6943.8838,4.2247,4.2247,0,0,1,.3965.9512,6.01572,6.01572,0,0,1,.1533,1.0332c.3301-.0532,3.584-.6787,3.584-.6787l-.0215-.2969a6.08885,6.08885,0,0,0-.6289-2.3184,6.43725,6.43725,0,0,0-1.5019-1.9516,7.45428,7.45428,0,0,0-2.2344-1.3408,7.77229,7.77229,0,0,0-2.8535-.5083,8.76081,8.76081,0,0,0-3.166.5459,7.25216,7.25216,0,0,0-2.4151,1.4907,6.47218,6.47218,0,0,0-1.5302,2.2304,7.10182,7.10182,0,0,0-.5274,2.7271,8.08568,8.08568,0,0,0,.57231,2.9873A11.459,11.459,0,0,0,276.08,25.0713a12.83275,12.83275,0,0,0-2.0439,1.2231,9.95227,9.95227,0,0,0-1.9326,1.8657,8.60447,8.60447,0,0,0-1.2832,2.2793,7.47552,7.47552,0,0,0-.4668,2.6314,7.35865,7.35865,0,0,0,.7363,3.3188,7.8451,7.8451,0,0,0,1.9336,2.4854,8.491,8.491,0,0,0,2.7148,1.5493,9.30619,9.30619,0,0,0,3.0879.5317,13.15451,13.15451,0,0,0,5.2432-1.0317,14.0036,14.0036,0,0,0,3.9658-2.5689s3.0566,3.1016,3.2529,3.2959h5.2051Zm-11.0322,3.0205a5.51991,5.51991,0,0,1-1.8233-.313,4.82947,4.82947,0,0,1-1.5752-.9126,4.47891,4.47891,0,0,1-1.5332-3.4981,5.47553,5.47553,0,0,1,.95711-3.102,7.783,7.783,0,0,1,2.68259-2.3565l7.6006,7.6714a10.02048,10.02048,0,0,1-2.6368,1.7647A8.72369,8.72369,0,0,1,279.39455,37.5293Z" transform="translate(-0.86084 2)"/>
      <g>
        <path class="3fe70dd7-7dd1-4ee8-8163-4971eb8506e6" d="M157.77925,6.2588l-7.3945,6.8256-3.1865-3.812,11.207-9.2715h4.835V40.2744h-5.461Z" transform="translate(-0.86084 2)"/>
        <path class="3fe70dd7-7dd1-4ee8-8163-4971eb8506e6" d="M184.28615,15.5869h.2285a10.0971,10.0971,0,0,1,4.4375-.9097,13.84025,13.84025,0,0,1,4.3799.7393,11.69207,11.69207,0,0,1,4.0097,2.3032,11.955,11.955,0,0,1,2.92921,3.9829,13.31074,13.31074,0,0,1,1.13769,5.7163,14.53082,14.53082,0,0,1-1.1093,5.8877,12.088,12.088,0,0,1-7.3663,6.7974,16.51663,16.51663,0,0,1-5.34709.852,15.509,15.509,0,0,1-5.34721-.9087,13.10607,13.10607,0,0,1-4.3809-2.6176,12.70907,12.70907,0,0,1-2.9853-4.0958,12.53537,12.53537,0,0,1-1.1084-5.3466,18.69053,18.69053,0,0,1,.2842-3.4126,16.208,16.208,0,0,1,.8242-2.9287,22.14708,22.14708,0,0,1,1.2798-2.7315q.739-1.33515,1.6499-2.8159L187.98485.0009h6.4272Zm-5.062,12.2304a9.19478,9.19478,0,0,0,.5976,3.3565,7.55285,7.55285,0,0,0,1.7066,2.6435,7.8944,7.8944,0,0,0,2.644,1.7359,9.62024,9.62024,0,0,0,6.8272,0,7.89744,7.89744,0,0,0,2.6445-1.7359,7.57489,7.57489,0,0,0,1.707-2.6435,9.7203,9.7203,0,0,0,0-6.7119,7.59611,7.59611,0,0,0-1.707-2.6475,7.93212,7.93212,0,0,0-2.6445-1.7339,9.62168,9.62168,0,0,0-6.8272,0,7.92906,7.92906,0,0,0-2.644,1.7339,7.574,7.574,0,0,0-1.7066,2.6475A9.18158,9.18158,0,0,0,179.22415,27.8173Z" transform="translate(-0.86084 2)"/>
      </g>
      <path class="3fe70dd7-7dd1-4ee8-8163-4971eb8506e6" d="M122.34815,40.956l-3.981-1.2275,18.2027-36.355,3.9253,1.2275Z" transform="translate(-0.86084 2)"/>
      <path class="3fe70dd7-7dd1-4ee8-8163-4971eb8506e6" d="M104.92135,25.3701h-.2275a10.0625,10.0625,0,0,1-4.436.9096,13.75737,13.75737,0,0,1-4.37989-.7402,11.59428,11.59428,0,0,1-4.01031-2.3017,11.95812,11.95812,0,0,1-2.9306-3.983,13.31258,13.31258,0,0,1-1.1368-5.7167,14.40562,14.40562,0,0,1,1.1094-5.8306,12.35163,12.35163,0,0,1,2.9854-4.2378A12.71319,12.71319,0,0,1,96.27485.8818,15.99213,15.99213,0,0,1,101.62305,0a15.55223,15.55223,0,0,1,5.3467.9096,13.10508,13.10508,0,0,1,4.3798,2.6172,12.70921,12.70921,0,0,1,2.9869,4.0957,12.55357,12.55357,0,0,1,1.1093,5.3472,18.86825,18.86825,0,0,1-.2841,3.4121,16.42733,16.42733,0,0,1-.8252,2.9302,24.23719,24.23719,0,0,1-1.2798,2.7588q-.7398,1.36515-1.6504,2.7876L101.22415,40.956h-6.4273Zm5.064-12.2305a9.16316,9.16316,0,0,0-.5982-3.3555,7.58539,7.58539,0,0,0-1.707-2.6464,7.91927,7.91927,0,0,0-2.6455-1.733,9.61622,9.61622,0,0,0-6.8252,0,7.94745,7.94745,0,0,0-2.645,1.733,7.57894,7.57894,0,0,0-1.7066,2.6464,9.18591,9.18591,0,0,0-.5966,3.3555,9.18288,9.18288,0,0,0,.5966,3.356,7.58278,7.58278,0,0,0,1.7066,2.646,7.93926,7.93926,0,0,0,2.645,1.7353,9.622,9.622,0,0,0,6.8252,0,7.91114,7.91114,0,0,0,2.6455-1.7353,7.58923,7.58923,0,0,0,1.707-2.646A9.16014,9.16014,0,0,0,109.98535,13.1396Z" transform="translate(-0.86084 2)"/>
      <g>
        <path class="3fe70dd7-7dd1-4ee8-8163-4971eb8506e6" d="M309.13085,6.9389l-7.3945,6.8267-3.1856-3.811L309.75685.6821h4.8359V40.956h-5.4619Z" transform="translate(-0.86084 2)"/>
        <path class="3fe70dd7-7dd1-4ee8-8163-4971eb8506e6" d="M345.85644,5.4604h-19.5117V.6821h25.3134V5.3466l-16.04,35.6094h-6.1436Z" transform="translate(-0.86084 2)"/>
      </g>
      <g>
        <path class="3fe70dd7-7dd1-4ee8-8163-4971eb8506e6" d="M222.83155,30.9389a8.20939,8.20939,0,0,0-2.16459-1.1494,25.93536,25.93536,0,0,0-2.84031-.8447q-1.2744-.3186-2.2285-.5942a7.28321,7.28321,0,0,1-1.5684-.625,2.50784,2.50784,0,0,1-.8984-.8003,2.15018,2.15018,0,0,1-.2847-1.1656,2.35684,2.35684,0,0,1,.9229-1.9892,4.84663,4.84663,0,0,1,2.9541-.7276,8.02545,8.02545,0,0,1,1.7846.2002,9.28194,9.28194,0,0,1,1.6021.5147,8.34,8.34,0,0,1,1.2715.6714,4.41168,4.41168,0,0,1,.8174.6606l.1171.1294,1.6167-2.916-.0883-.0659a12.98754,12.98754,0,0,0-3.1333-1.669,11.01163,11.01163,0,0,0-3.9009-.6758,10.48922,10.48922,0,0,0-2.9937.4117,7.07336,7.07336,0,0,0-2.4062,1.2255,5.87147,5.87147,0,0,0-1.6138,2.0147,6.12421,6.12421,0,0,0-.5932,2.7373,5.10605,5.10605,0,0,0,.4028,2.1255,4.391,4.391,0,0,0,1.1787,1.5376,6.8796,6.8796,0,0,0,1.9341,1.1084,24.9402,24.9402,0,0,0,2.6963.8603q1.33155.3465,2.3735.6651a9.70762,9.70762,0,0,1,1.7461.7007,3.25209,3.25209,0,0,1,1.0757.8798,1.99664,1.99664,0,0,1,.3667,1.2286,2.05615,2.05615,0,0,1-.9863,1.8667,5.40621,5.40621,0,0,1-2.8907.6474,9.31218,9.31218,0,0,1-2.2607-.2715,14.47989,14.47989,0,0,1-2.02689-.6611,10.10406,10.10406,0,0,1-1.63281-.8447,6.7695,6.7695,0,0,1-1.0674-.8252l-.1191-.1196-1.6079,3.0268.0835.0645a13.18,13.18,0,0,0,3.9961,2.0937,14.79923,14.79923,0,0,0,4.5771.7163,12.52665,12.52665,0,0,0,2.959-.3369,7.32709,7.32709,0,0,0,2.4331-1.0625,5.2124,5.2124,0,0,0,1.6641-1.8867,5.8753,5.8753,0,0,0,.6089-2.7549,5.463,5.463,0,0,0-.4913-2.4185A4.74406,4.74406,0,0,0,222.83155,30.9389Z" transform="translate(-0.86084 2)"/>
        <path class="3fe70dd7-7dd1-4ee8-8163-4971eb8506e6" d="M235.30615,20.0381l-8.2769,20.8403H230.75l2.146-5.5977h7.77489l2.1748,5.5977h3.691l-8.2183-20.8403ZM239.938,32.624h-6.36521l3.2373-8.3687Z" transform="translate(-0.86084 2)"/>
        <polygon class="3fe70dd7-7dd1-4ee8-8163-4971eb8506e6" points="244.534 22.038 244.534 25.159 251.407 25.159 251.407 42.878 254.934 42.878 254.934 25.159 261.778 25.159 261.778 22.038 244.534 22.038"/>
      </g>
      <g>
        <path class="3fe70dd7-7dd1-4ee8-8163-4971eb8506e6" d="M366.585,30.9389a8.22325,8.22325,0,0,0-2.165-1.1494,25.88353,25.88353,0,0,0-2.83992-.8447q-1.2729-.3186-2.2285-.5942a7.25388,7.25388,0,0,1-1.5684-.625,2.50468,2.50468,0,0,1-.8984-.8008,2.14362,2.14362,0,0,1-.2852-1.1651,2.38881,2.38881,0,0,1,.9229-1.9892,4.84866,4.84866,0,0,1,2.9541-.7276,8.01194,8.01194,0,0,1,1.7842.2002,9.27772,9.27772,0,0,1,1.6025.5147,8.3392,8.3392,0,0,1,1.2725.6714,4.39,4.39,0,0,1,.8164.6606l.1172.1294,1.6162-2.916-.0879-.0659a12.944,12.944,0,0,0-3.1328-1.669,11.01248,11.01248,0,0,0-3.9014-.6758,10.497,10.497,0,0,0-2.9941.4117,7.0777,7.0777,0,0,0-2.4053,1.2255,5.89712,5.89712,0,0,0-1.6143,2.0147,6.12711,6.12711,0,0,0-.5927,2.7373,5.10435,5.10435,0,0,0,.4033,2.1255,4.39923,4.39923,0,0,0,1.1777,1.5376,6.88149,6.88149,0,0,0,1.9346,1.1084,25.02,25.02,0,0,0,2.69732.8603q1.33.3465,2.373.6651a9.63856,9.63856,0,0,1,1.74508.7007,3.27754,3.27754,0,0,1,1.0772.8784,2.008,2.008,0,0,1,.3652,1.23,2.05461,2.05461,0,0,1-.9863,1.8667,5.39891,5.39891,0,0,1-2.8906.6474,9.3184,9.3184,0,0,1-2.2608-.2715,14.53921,14.53921,0,0,1-2.0264-.6611,10.08721,10.08721,0,0,1-1.6328-.8447,6.74191,6.74191,0,0,1-1.0664-.8252l-.1201-.1196-1.6084,3.0268.084.0645a13.17844,13.17844,0,0,0,3.9961,2.0932,14.78246,14.78246,0,0,0,4.5771.7168,12.503,12.503,0,0,0,2.958-.3369,7.3208,7.3208,0,0,0,2.4346-1.0625,5.20623,5.20623,0,0,0,1.6631-1.8867A5.86927,5.86927,0,0,0,368.461,35.04a5.45317,5.45317,0,0,0-.49122-2.4185A4.75882,4.75882,0,0,0,366.585,30.9389Z" transform="translate(-0.86084 2)"/>
        <path class="3fe70dd7-7dd1-4ee8-8163-4971eb8506e6" d="M387.169,30.603a13.17941,13.17941,0,0,1-.27252,2.6855,6.95581,6.95581,0,0,1-.9121,2.3086,4.982,4.982,0,0,1-1.6836,1.6265,5.10756,5.10756,0,0,1-2.63278.6201,5.21579,5.21579,0,0,1-2.62012-.6069,4.81121,4.81121,0,0,1-1.6973-1.6109,6.94649,6.94649,0,0,1-.9111-2.3086,13.26083,13.26083,0,0,1-.27248-2.7143V20.0381h-3.498V30.603a16.02207,16.02207,0,0,0,.46778,3.8877,9.57433,9.57433,0,0,0,1.5273,3.3345,7.66484,7.66484,0,0,0,2.7852,2.3295,9.35213,9.35213,0,0,0,4.21872.8682,9.52726,9.52726,0,0,0,4.12788-.8242,7.63742,7.63742,0,0,0,2.8155-2.2559,9.3923,9.3923,0,0,0,1.5879-3.3213,15.821,15.821,0,0,0,.4961-4.0185V20.0381H387.169Z" transform="translate(-0.86084 2)"/>
        <polygon class="3fe70dd7-7dd1-4ee8-8163-4971eb8506e6" points="408.232 22.067 408.232 36.652 396.68 22.086 393.906 22.038 393.906 42.878 397.404 42.878 397.404 28.608 408.838 42.831 411.758 42.878 411.758 22.067 408.232 22.067"/>
      </g>
    </g>
  </g>
  <g>
    <path class="3fe70dd7-7dd1-4ee8-8163-4971eb8506e6" d="M9.44824,59.50535A6.20447,6.20447,0,0,0,6.57178,58.812c-1.6377,0-2.37256.88184-2.37256,1.78516,0,1.1543.79785,1.67969,2.77148,2.582,2.58252,1.1543,3.7373,2.64551,3.7373,4.76563,0,2.81445-2.12061,4.87109-5.87891,4.87109a8.64363,8.64363,0,0,1-3.96826-.90234L1.46973,69.31a7.24037,7.24037,0,0,0,3.48535.90234c1.72168,0,2.62451-.81836,2.62451-2.01562,0-1.1543-.77686-1.84766-2.56152-2.624C2.58252,64.52293,1.0708,63.01121,1.0708,60.9116c0-2.64551,2.07861-4.68164,5.564-4.68164a7.815,7.815,0,0,1,3.46436.73438Z" transform="translate(-0.86084 2)"/>
    <path class="3fe70dd7-7dd1-4ee8-8163-4971eb8506e6" d="M22.78271,69.0366c0,1.38672.063,2.583.105,3.57031H20.1792l-.147-1.55469h-.063a3.902,3.902,0,0,1-3.35937,1.78516c-2.22559,0-3.7373-1.44922-3.7373-4.95508V60.9116H15.98v6.50879c0,1.76367.50391,2.876,1.78467,2.876a2.01854,2.01854,0,0,0,1.91064-2.18359V60.9116h3.10742Z" transform="translate(-0.86084 2)"/>
    <path class="3fe70dd7-7dd1-4ee8-8163-4971eb8506e6" d="M41.78613,72.60691H38.7417V65.99265c0-1.67969-.46191-2.792-1.70068-2.792-.86084,0-1.82666.67188-1.82666,2.30859v7.09766H32.16992v-6.9082c0-1.38574-.44092-2.498-1.65869-2.498a2.11081,2.11081,0,0,0-1.86865,2.37207v7.03418H25.59814v-8.168c0-1.36523-.042-2.47754-.084-3.50586h2.64551l.147,1.55273h.063A3.82281,3.82281,0,0,1,31.687,60.68113a3.05158,3.05158,0,0,1,2.98145,1.95215h.042a3.98639,3.98639,0,0,1,3.46436-1.95215c2.03662,0,3.61133,1.44824,3.61133,4.82813Z" transform="translate(-0.86084 2)"/>
    <path class="3fe70dd7-7dd1-4ee8-8163-4971eb8506e6" d="M46.07275,59.37839a1.65834,1.65834,0,1,1,1.67969-1.6582A1.59821,1.59821,0,0,1,46.07275,59.37839Zm1.57471,13.22852H44.54V60.9116h3.10742Z" transform="translate(-0.86084 2)"/>
    <path class="3fe70dd7-7dd1-4ee8-8163-4971eb8506e6" d="M50.94482,58.77l3.06543-.90332V60.9116h2.58252v2.28906H54.01025v5.08008c0,1.40723.44092,1.99512,1.38574,1.99512a4.53212,4.53212,0,0,0,1.00781-.10449l.042,2.37207a6.26322,6.26322,0,0,1-2.07861.27246c-3.35937,0-3.42236-2.918-3.42236-4.21973V63.20066H49.41211V60.9116h1.53271Z" transform="translate(-0.86084 2)"/>
    <path class="3fe70dd7-7dd1-4ee8-8163-4971eb8506e6" d="M68.73,66.66453c0,4.45117-2.85547,6.17285-5.459,6.17285-3.14941,0-5.417-2.22559-5.417-6.02539,0-3.92676,2.37256-6.15234,5.543-6.15234C66.67236,60.65964,68.73,63.11668,68.73,66.66453Zm-5.396-3.71582c-1.72168,0-2.33057,2.01563-2.33057,3.7998,0,2.0791.79785,3.7998,2.30957,3.7998,1.46973,0,2.26758-1.74219,2.26758-3.82031C65.58057,64.90085,64.92969,62.94871,63.334,62.94871Z" transform="translate(-0.86084 2)"/>
    <path class="3fe70dd7-7dd1-4ee8-8163-4971eb8506e6" d="M87.1665,72.60691H84.12207V65.99265c0-1.67969-.46191-2.792-1.70068-2.792-.86084,0-1.82666.67188-1.82666,2.30859v7.09766H77.55029v-6.9082c0-1.38574-.44092-2.498-1.65869-2.498a2.11081,2.11081,0,0,0-1.86865,2.37207v7.03418H70.97852v-8.168c0-1.36523-.042-2.47754-.084-3.50586H73.54l.147,1.55273h.063a3.82281,3.82281,0,0,1,3.31738-1.80469,3.05158,3.05158,0,0,1,2.98145,1.95215h.042a3.98639,3.98639,0,0,1,3.46436-1.95215c2.03662,0,3.61133,1.44824,3.61133,4.82813Z" transform="translate(-0.86084 2)"/>
    <path class="3fe70dd7-7dd1-4ee8-8163-4971eb8506e6" d="M100.12451,66.66453c0,4.45117-2.85547,6.17285-5.459,6.17285-3.14941,0-5.417-2.22559-5.417-6.02539,0-3.92676,2.37256-6.15234,5.543-6.15234C98.06689,60.65964,100.12451,63.11668,100.12451,66.66453Zm-5.396-3.71582c-1.72168,0-2.33057,2.01563-2.33057,3.7998,0,2.0791.79785,3.7998,2.30957,3.7998,1.46973,0,2.26758-1.74219,2.26758-3.82031C96.9751,64.90085,96.32422,62.94871,94.72852,62.94871Z" transform="translate(-0.86084 2)"/>
    <path class="3fe70dd7-7dd1-4ee8-8163-4971eb8506e6" d="M107.07666,72.60691V56.46043h8.65039v2.60352h-5.543v4.26172h5.165v2.541h-5.165v6.74023Z" transform="translate(-0.86084 2)"/>
    <path class="3fe70dd7-7dd1-4ee8-8163-4971eb8506e6" d="M128.05371,69.0366c0,1.38672.063,2.583.105,3.57031h-2.7085l-.147-1.55469h-.063a3.902,3.902,0,0,1-3.35937,1.78516c-2.22559,0-3.7373-1.44922-3.7373-4.95508V60.9116H121.251v6.50879c0,1.76367.50391,2.876,1.78467,2.876a2.01854,2.01854,0,0,0,1.91064-2.18359V60.9116h3.10742Z" transform="translate(-0.86084 2)"/>
    <path class="3fe70dd7-7dd1-4ee8-8163-4971eb8506e6" d="M140.92627,69.268c0,1.17578.042,2.47754.084,3.33887h-2.72949l-.147-1.65918h-.063a3.67636,3.67636,0,0,1-3.29639,1.88965c-2.64551,0-4.53516-2.43555-4.53516-5.98437,0-3.98828,2.20459-6.17187,4.72412-6.17187a3.10818,3.10818,0,0,1,2.81348,1.36426h.042V55.72605h3.10742Zm-3.10742-3.59082c0-1.7002-1.02881-2.54-2.05762-2.54-1.5957,0-2.39355,1.6377-2.39355,3.6748,0,2.12012.88184,3.52734,2.35156,3.52734.92383,0,2.09961-.67187,2.09961-2.51953Z" transform="translate(-0.86084 2)"/>
    <path class="3fe70dd7-7dd1-4ee8-8163-4971eb8506e6" d="M153.94629,66.66453c0,4.45117-2.85547,6.17285-5.459,6.17285-3.14941,0-5.417-2.22559-5.417-6.02539,0-3.92676,2.37256-6.15234,5.543-6.15234C151.88867,60.65964,153.94629,63.11668,153.94629,66.66453Zm-5.396-3.71582c-1.72168,0-2.33057,2.01563-2.33057,3.7998,0,2.0791.79785,3.7998,2.30957,3.7998,1.46973,0,2.26758-1.74219,2.26758-3.82031C150.79688,64.90085,150.146,62.94871,148.55029,62.94871Z" transform="translate(-0.86084 2)"/>
    <path class="3fe70dd7-7dd1-4ee8-8163-4971eb8506e6" d="M162.34668,63.49363a4.82587,4.82587,0,0,0-2.20459-.6084c-.94482,0-1.44873.4834-1.44873,1.1123,0,.65137.44092.9873,1.78467,1.55469,1.97363.81836,2.89746,1.95215,2.89746,3.56836,0,2.22656-1.67969,3.69531-4.59814,3.69531a6.82315,6.82315,0,0,1-3.29639-.77637l.58789-2.24707a6.13873,6.13873,0,0,0,2.72949.77734c1.0918,0,1.6167-.46191,1.6167-1.17578s-.39893-1.0918-1.67969-1.6377c-2.18359-.88184-2.98145-2.12012-2.98145-3.40137,0-2.09961,1.67969-3.69531,4.2832-3.69531a6.36452,6.36452,0,0,1,2.89746.65039Z" transform="translate(-0.86084 2)"/>
    <path class="3fe70dd7-7dd1-4ee8-8163-4971eb8506e6" d="M174.23193,69.83543a17.66494,17.66494,0,0,0,.168,2.77148h-2.79248l-.189-1.21875h-.063a3.75326,3.75326,0,0,1-3.10742,1.44922,3.39622,3.39622,0,0,1-3.50635-3.50586c0-3.00293,2.6665-4.41016,6.38281-4.41016,0-1.1543-.39893-2.03613-2.09961-2.03613a5.69987,5.69987,0,0,0-2.87646.79785l-.58789-2.01562a8.23192,8.23192,0,0,1,4.05225-.98633c3.63232,0,4.61914,2.30859,4.61914,4.87109Zm-3.02344-2.91895c-1.67969,0-3.42236.39941-3.42236,2.09961a1.42461,1.42461,0,0,0,1.46973,1.5957,1.94436,1.94436,0,0,0,1.95264-2.01562Z" transform="translate(-0.86084 2)"/>
    <path class="3fe70dd7-7dd1-4ee8-8163-4971eb8506e6" d="M186.99951,72.60691h-3.10742V65.78269c0-1.42773-.46191-2.56152-1.78467-2.56152-.83984,0-1.99463.65137-1.99463,2.43555v6.9502h-3.10742v-8.168c0-1.36523-.042-2.47754-.084-3.50586h2.6875l.147,1.57422h.063a3.93538,3.93538,0,0,1,3.38037-1.82617c2.1416,0,3.80029,1.49023,3.80029,4.76563Z" transform="translate(-0.86084 2)"/>
    <path class="3fe70dd7-7dd1-4ee8-8163-4971eb8506e6" d="M202.3501,59.50535a6.20447,6.20447,0,0,0-2.87646-.69336c-1.6377,0-2.37256.88184-2.37256,1.78516,0,1.1543.79785,1.67969,2.77148,2.582,2.58252,1.1543,3.7373,2.64551,3.7373,4.76563,0,2.81445-2.12061,4.87109-5.87891,4.87109a8.64363,8.64363,0,0,1-3.96826-.90234l.60889-2.60352a7.24037,7.24037,0,0,0,3.48535.90234c1.72168,0,2.62451-.81836,2.62451-2.01562,0-1.1543-.77686-1.84766-2.56152-2.624-2.43555-1.0498-3.94727-2.56152-3.94727-4.66113,0-2.64551,2.07861-4.68164,5.564-4.68164a7.815,7.815,0,0,1,3.46436.73438Z" transform="translate(-0.86084 2)"/>
    <path class="3fe70dd7-7dd1-4ee8-8163-4971eb8506e6" d="M215.81055,72.60691h-3.10742V65.86668c0-1.49023-.46191-2.64551-1.80566-2.64551a2.0381,2.0381,0,0,0-1.97363,2.28809v7.09766h-3.10742V55.72605h3.10742v6.5918h.042a3.81248,3.81248,0,0,1,3.12793-1.6582c2.0791,0,3.7168,1.51172,3.7168,4.95508Z" transform="translate(-0.86084 2)"/>
    <path class="3fe70dd7-7dd1-4ee8-8163-4971eb8506e6" d="M220.11719,59.37839a1.65834,1.65834,0,1,1,1.67969-1.6582A1.59809,1.59809,0,0,1,220.11719,59.37839Zm1.57422,13.22852H218.584V60.9116h3.10742Z" transform="translate(-0.86084 2)"/>
    <path class="3fe70dd7-7dd1-4ee8-8163-4971eb8506e6" d="M234.47852,72.60691h-3.10742V65.78269c0-1.42773-.46094-2.56152-1.78418-2.56152a2.13778,2.13778,0,0,0-1.99512,2.43555v6.9502h-3.10742v-8.168c0-1.36523-.041-2.47754-.084-3.50586h2.6875l.14746,1.57422h.06348a3.93446,3.93446,0,0,1,3.37988-1.82617c2.1416,0,3.7998,1.49023,3.7998,4.76563Z" transform="translate(-0.86084 2)"/>
    <path class="3fe70dd7-7dd1-4ee8-8163-4971eb8506e6" d="M240.6543,71.47214c0,1.93164-.10547,6.15234-5.459,6.15234l-.29492-2.43555c2.47852-.18945,2.64648-1.5332,2.64648-4.49316V60.9116h3.10742Zm-1.5752-12.09375a1.65827,1.65827,0,1,1,1.67969-1.6582A1.59833,1.59833,0,0,1,239.0791,59.37839Z" transform="translate(-0.86084 2)"/>
    <path class="3fe70dd7-7dd1-4ee8-8163-4971eb8506e6" d="M253.29492,69.0366c0,1.38672.0625,2.583.10449,3.57031h-2.708l-.14746-1.55469h-.06348a3.9,3.9,0,0,1-3.35937,1.78516c-2.22461,0-3.73633-1.44922-3.73633-4.95508V60.9116h3.10742v6.50879c0,1.76367.50391,2.876,1.78418,2.876a2.0189,2.0189,0,0,0,1.91113-2.18359V60.9116h3.10742Z" transform="translate(-0.86084 2)"/>
    <path class="3fe70dd7-7dd1-4ee8-8163-4971eb8506e6" d="M266.46094,72.60691h-3.69531l-2.72949-4.998-.81934,1.11328v3.88477h-3.10742V55.72605h3.10742V66.01316h.06348a15.58151,15.58151,0,0,1,.77637-1.44824l2.33105-3.65332H265.999l-3.82129,4.80859Z" transform="translate(-0.86084 2)"/>
    <path class="3fe70dd7-7dd1-4ee8-8163-4971eb8506e6" d="M277.52734,69.0366c0,1.38672.06348,2.583.10547,3.57031h-2.709l-.14648-1.55469h-.0625a3.90412,3.90412,0,0,1-3.35937,1.78516c-2.22656,0-3.73828-1.44922-3.73828-4.95508V60.9116h3.10742v6.50879c0,1.76367.50391,2.876,1.78516,2.876a2.01818,2.01818,0,0,0,1.91016-2.18359V60.9116h3.10742Z" transform="translate(-0.86084 2)"/>
    <path class="3fe70dd7-7dd1-4ee8-8163-4971eb8506e6" d="M296.7207,71.97605a14.28268,14.28268,0,0,1-4.59766.79883,7.69522,7.69522,0,0,1-5.68945-1.97461A8.53995,8.53995,0,0,1,284.25,64.66941c0-5.459,3.63184-8.377,8.27148-8.377a9.27354,9.27354,0,0,1,3.7793.67188l-.65039,2.56152a7.08905,7.08905,0,0,0-3.08594-.58789c-2.877,0-5.06055,1.76367-5.06055,5.66895,0,3.7373,1.99414,5.627,4.66113,5.627a4.327,4.327,0,0,0,1.5957-.23047V66.05613h-2.33105v-2.457h5.291Z" transform="translate(-0.86084 2)"/>
    <path class="3fe70dd7-7dd1-4ee8-8163-4971eb8506e6" d="M305.709,63.68308a4.38161,4.38161,0,0,0-.79687-.0625c-1.40723,0-2.47852.94434-2.47852,2.93945v6.04688h-3.10742v-8.042c0-1.44824-.041-2.60352-.084-3.65332h2.667l.126,2.03711h.084a3.24076,3.24076,0,0,1,2.89746-2.28906,3.30639,3.30639,0,0,1,.69238.0625Z" transform="translate(-0.86084 2)"/>
    <path class="3fe70dd7-7dd1-4ee8-8163-4971eb8506e6" d="M316.166,69.83543a17.78431,17.78431,0,0,0,.168,2.77148h-2.792l-.18848-1.21875H313.29a3.75326,3.75326,0,0,1-3.10742,1.44922,3.39634,3.39634,0,0,1-3.50684-3.50586c0-3.00293,2.667-4.41016,6.38281-4.41016,0-1.1543-.39844-2.03613-2.09961-2.03613a5.69944,5.69944,0,0,0-2.876.79785l-.58789-2.01562a8.22975,8.22975,0,0,1,4.05176-.98633c3.63281,0,4.61914,2.30859,4.61914,4.87109Zm-3.02344-2.91895c-1.67969,0-3.42187.39941-3.42187,2.09961a1.42484,1.42484,0,0,0,1.46973,1.5957,1.94373,1.94373,0,0,0,1.95215-2.01562Z" transform="translate(-0.86084 2)"/>
    <path class="3fe70dd7-7dd1-4ee8-8163-4971eb8506e6" d="M328.93359,72.60691h-3.10742V65.78269c0-1.42773-.46094-2.56152-1.78418-2.56152a2.13778,2.13778,0,0,0-1.99512,2.43555v6.9502h-3.10742v-8.168c0-1.36523-.041-2.47754-.084-3.50586h2.6875l.14746,1.57422h.06348a3.93446,3.93446,0,0,1,3.37988-1.82617c2.1416,0,3.7998,1.49023,3.7998,4.76563Z" transform="translate(-0.86084 2)"/>
    <path class="3fe70dd7-7dd1-4ee8-8163-4971eb8506e6" d="M341.76465,69.268c0,1.17578.042,2.47754.084,3.33887h-2.72949l-.14648-1.65918h-.06348a3.675,3.675,0,0,1-3.2959,1.88965c-2.64648,0-4.53516-2.43555-4.53516-5.98437,0-3.98828,2.2041-6.17187,4.72363-6.17187a3.10876,3.10876,0,0,1,2.81348,1.36426h.042V55.72605h3.10742Zm-3.10742-3.59082c0-1.7002-1.02832-2.54-2.05762-2.54-1.5957,0-2.39355,1.6377-2.39355,3.6748,0,2.12012.88184,3.52734,2.35156,3.52734.92383,0,2.09961-.67187,2.09961-2.51953Z" transform="translate(-0.86084 2)"/>
    <path class="3fe70dd7-7dd1-4ee8-8163-4971eb8506e6" d="M359.04785,59.14793h-3.98926v13.459h-3.10742v-13.459h-3.96875v-2.6875h11.06543Z" transform="translate(-0.86084 2)"/>
    <path class="3fe70dd7-7dd1-4ee8-8163-4971eb8506e6" d="M370.91211,66.66453c0,4.45117-2.85547,6.17285-5.459,6.17285-3.14844,0-5.416-2.22559-5.416-6.02539,0-3.92676,2.37207-6.15234,5.543-6.15234C368.85547,60.65964,370.91211,63.11668,370.91211,66.66453Zm-5.39551-3.71582c-1.72168,0-2.33105,2.01563-2.33105,3.7998,0,2.0791.79883,3.7998,2.31055,3.7998,1.46875,0,2.26758-1.74219,2.26758-3.82031C367.76367,64.90085,367.1123,62.94871,365.5166,62.94871Z" transform="translate(-0.86084 2)"/>
    <path class="3fe70dd7-7dd1-4ee8-8163-4971eb8506e6" d="M388.3418,60.9116l-3.42187,11.69531h-2.81445l-1.17578-4.47266c-.293-1.1543-.52441-2.26758-.75586-3.67383h-.041a28.97843,28.97843,0,0,1-.77734,3.67383l-1.28125,4.47266h-2.8125L372.00684,60.9116h3.21191l.9873,5.123c.23145,1.23828.46191,2.498.62988,3.7373h.0625c.21094-1.23926.54688-2.54.81934-3.69531l1.30176-5.165h2.457l1.23828,5.01758c.33594,1.34375.60938,2.583.81836,3.84277h.06348c.14746-1.23926.37793-2.499.65137-3.84277l1.04883-5.01758Z" transform="translate(-0.86084 2)"/>
    <path class="3fe70dd7-7dd1-4ee8-8163-4971eb8506e6" d="M398.84375,72.144a9.90226,9.90226,0,0,1-3.7793.67188c-3.61133,0-5.66992-2.26758-5.66992-5.89941,0-3.35937,1.93164-6.25684,5.35449-6.25684,2.835,0,4.68262,2.01563,4.68262,5.79492a7.21842,7.21842,0,0,1-.084,1.23828h-6.99219c.084,1.99512,1.51172,2.793,3.19141,2.793a8.53068,8.53068,0,0,0,2.85547-.48242Zm-2.28906-6.61328c.02148-1.21777-.46191-2.709-1.99414-2.709-1.49121,0-2.12109,1.55469-2.20508,2.709Z" transform="translate(-0.86084 2)"/>
    <path class="3fe70dd7-7dd1-4ee8-8163-4971eb8506e6" d="M407.97852,63.68308a4.38161,4.38161,0,0,0-.79687-.0625c-1.40723,0-2.47852.94434-2.47852,2.93945v6.04688H401.5957v-8.042c0-1.44824-.041-2.60352-.084-3.65332h2.667l.126,2.03711h.084a3.24076,3.24076,0,0,1,2.89746-2.28906,3.30639,3.30639,0,0,1,.69238.0625Z" transform="translate(-0.86084 2)"/>
    <path class="3fe70dd7-7dd1-4ee8-8163-4971eb8506e6" d="M423.11914,56.71238V59.2739h-5.39648l-.41992,3.10742a5.82786,5.82786,0,0,1,.88281-.06348c2.77148,0,5.375,1.55469,5.375,4.97656,0,3.04492-2.33105,5.543-6.06836,5.543a8.56592,8.56592,0,0,1-3.7793-.81836l.60938-2.35156a6.82084,6.82084,0,0,0,3.002.73438,2.89132,2.89132,0,0,0,3.10742-2.85547c0-1.91016-1.40625-2.98145-4.09375-2.98145a14.43535,14.43535,0,0,0-1.78516.10449l.96582-7.957Z" transform="translate(-0.86084 2)"/>
    <path class="3fe70dd7-7dd1-4ee8-8163-4971eb8506e6" d="M426.75391,58.77l3.06445-.90332V60.9116h2.583v2.28906h-2.583v5.08008c0,1.40723.44141,1.99512,1.38672,1.99512a4.53874,4.53874,0,0,0,1.00781-.10449l.041,2.37207a6.262,6.262,0,0,1-2.07812.27246c-3.35937,0-3.42187-2.918-3.42187-4.21973V63.20066h-1.5332V60.9116h1.5332Z" transform="translate(-0.86084 2)"/>
    <path class="3fe70dd7-7dd1-4ee8-8163-4971eb8506e6" d="M444.32813,72.60691H441.2207V65.86668c0-1.49023-.46094-2.64551-1.80469-2.64551a2.03847,2.03847,0,0,0-1.97461,2.28809v7.09766H434.334V55.72605h3.10742v6.5918h.043a3.81186,3.81186,0,0,1,3.12793-1.6582c2.0791,0,3.71582,1.51172,3.71582,4.95508Z" transform="translate(-0.86084 2)"/>
    <path class="3fe70dd7-7dd1-4ee8-8163-4971eb8506e6" d="M451.80664,72.60691V56.46043H460.457v2.60352h-5.543v4.26172h5.16406v2.541h-5.16406v6.74023Z" transform="translate(-0.86084 2)"/>
    <path class="3fe70dd7-7dd1-4ee8-8163-4971eb8506e6" d="M466.02148,72.60691h-3.10742V55.72605h3.10742Z" transform="translate(-0.86084 2)"/>
    <path class="3fe70dd7-7dd1-4ee8-8163-4971eb8506e6" d="M479.01953,66.66453c0,4.45117-2.85547,6.17285-5.459,6.17285-3.15039,0-5.418-2.22559-5.418-6.02539,0-3.92676,2.373-6.15234,5.543-6.15234C476.96094,60.65964,479.01953,63.11668,479.01953,66.66453ZM473.623,62.94871c-1.72168,0-2.33008,2.01563-2.33008,3.7998,0,2.0791.79688,3.7998,2.30859,3.7998,1.4707,0,2.26758-1.74219,2.26758-3.82031C475.86914,64.90085,475.21875,62.94871,473.623,62.94871Z" transform="translate(-0.86084 2)"/>
    <path class="3fe70dd7-7dd1-4ee8-8163-4971eb8506e6" d="M491.47266,66.66453c0,4.45117-2.85547,6.17285-5.459,6.17285-3.15039,0-5.418-2.22559-5.418-6.02539,0-3.92676,2.373-6.15234,5.543-6.15234C489.41406,60.65964,491.47266,63.11668,491.47266,66.66453Zm-5.39648-3.71582c-1.72168,0-2.33008,2.01563-2.33008,3.7998,0,2.0791.79688,3.7998,2.30859,3.7998,1.4707,0,2.26758-1.74219,2.26758-3.82031C488.32227,64.90085,487.67188,62.94871,486.07617,62.94871Z" transform="translate(-0.86084 2)"/>
    <path class="3fe70dd7-7dd1-4ee8-8163-4971eb8506e6" d="M500.10352,63.68308a4.38161,4.38161,0,0,0-.79687-.0625c-1.40723,0-2.47852.94434-2.47852,2.93945v6.04688H493.7207v-8.042c0-1.44824-.041-2.60352-.084-3.65332h2.667l.126,2.03711h.084a3.24076,3.24076,0,0,1,2.89746-2.28906,3.30639,3.30639,0,0,1,.69238.0625Z" transform="translate(-0.86084 2)"/>
  </g>
</svg>
