<svg xmlns="http://www.w3.org/2000/svg" viewBox="0 0 128.8 45.4"><path fill="#0097E0" d="M128.8 40.4c0 2.8-2.2 5-5 5H5c-2.8 0-5-2.2-5-5V5c0-2.8 2.2-5 5-5h118.8c2.8 0 5 2.2 5 5v35.4z"/><g fill="#FFF"><path d="M19.1 38.5V36c1.5-.1 2.7-.6 3.6-1.4.9-.9 1.4-2.1 1.4-3.6V11.6h2.6v19.5c0 1.2-.2 2.2-.6 3.2-.4.9-.9 1.7-1.6 2.3-.7.6-1.5 1.1-2.4 1.5s-1.9.4-3 .4zM38 22.8c0-1.6.3-3 .9-4.4s1.4-2.6 2.4-3.7c1-1 2.2-1.9 3.6-2.5s2.9-.9 4.4-.9c1.6 0 3 .3 4.4.9 1.4.6 2.6 1.4 3.7 2.5 1 1 1.9 2.3 2.5 3.7s.9 2.9.9 4.4c0 1.6-.3 3.1-.9 4.4s-1.4 2.6-2.5 3.6c-1 1-2.3 1.8-3.7 2.4-1.4.6-2.9.9-4.4.9-1.6 0-3.1-.3-4.4-.9-1.4-.6-2.6-1.4-3.6-2.4s-1.8-2.2-2.4-3.6-.9-2.8-.9-4.4zm2.6 0c0 1.2.2 2.4.7 3.5.5 1.1 1.1 2 1.9 2.8s1.7 1.4 2.8 1.9c1.1.5 2.2.7 3.4.7s2.3-.2 3.4-.7c1.1-.5 2-1.1 2.8-1.9s1.4-1.7 1.9-2.8c.5-1.1.7-2.2.7-3.5 0-1.2-.2-2.4-.7-3.5-.5-1.1-1.1-2-1.9-2.8-.8-.8-1.7-1.4-2.8-1.9-1.1-.5-2.2-.7-3.4-.7s-2.4.2-3.4.7c-1.1.5-2 1.1-2.8 1.9-.8.8-1.4 1.7-1.9 2.8-.5 1.1-.7 2.3-.7 3.5zM72.2 11.6h2.6v22.3h-2.6V11.6zM107 11.6V35c-2.7-2.9-5.5-5.8-8.2-8.7-2.7-2.9-5.4-5.8-8.2-8.7-.1-.1-.2-.3-.3-.4s-.2-.3-.3-.4v17.1h-2.6V10.6c2.7 3 5.5 5.9 8.2 8.9 2.7 2.9 5.4 5.9 8.2 8.9.1.1.2.3.3.4.1.1.2.3.3.4v-.5-17.1h2.6z"/></g></svg>